<?xml version="1.0" encoding="UTF-8" standalone="no"?>
<!-- Created with Inkscape (http://www.inkscape.org/) -->

<svg
   xmlns:dc="http://purl.org/dc/elements/1.1/"
   xmlns:cc="http://creativecommons.org/ns#"
   xmlns:rdf="http://www.w3.org/1999/02/22-rdf-syntax-ns#"
   xmlns:svg="http://www.w3.org/2000/svg"
   xmlns="http://www.w3.org/2000/svg"
   xmlns:sodipodi="http://sodipodi.sourceforge.net/DTD/sodipodi-0.dtd"
   xmlns:inkscape="http://www.inkscape.org/namespaces/inkscape"
   width="1000mm"
   height="600mm"
   viewBox="0 0 1000 600"
   version="1.1"
   id="svg8"
   inkscape:version="0.92.4 (5da689c313, 2019-01-14)"
   sodipodi:docname="smartwatch spurs - edited 2 svg.svg">
  <defs
     id="defs2" />
  <sodipodi:namedview
     id="base"
     pagecolor="#ffffff"
     bordercolor="#666666"
     borderopacity="1.0"
     inkscape:pageopacity="0"
     inkscape:pageshadow="2"
     inkscape:zoom="11.313709"
     inkscape:cx="301.91073"
     inkscape:cy="2131.5725"
     inkscape:document-units="mm"
     inkscape:current-layer="layer1"
     showgrid="false"
     inkscape:pagecheckerboard="false"
     inkscape:showpageshadow="true"
     inkscape:window-width="1920"
     inkscape:window-height="1017"
     inkscape:window-x="-8"
     inkscape:window-y="-8"
     inkscape:window-maximized="1" />
  <metadata
     id="metadata5">
    <rdf:RDF>
      <cc:Work
         rdf:about="">
        <dc:format>image/svg+xml</dc:format>
        <dc:type
           rdf:resource="http://purl.org/dc/dcmitype/StillImage" />
        <dc:title></dc:title>
      </cc:Work>
    </rdf:RDF>
  </metadata>
  <g
     inkscape:label="Layer 1"
     inkscape:groupmode="layer"
     id="layer1"
     transform="translate(0,303)">
    <path
       inkscape:connector-curvature="0"
       id="SvgjsPath1941"
       d="m 67.719778,-261.64512 0.12978,-0.17331 0.12663,-0.15509 0.12194,-0.1372 0.11636,-0.12035 0.109,-0.10367 0.10036,-0.0878 0.0916,-0.0736 0.0822,-0.0605 0.12732,-0.0824 0.0773,-0.0415 0.14134,-0.0484 0.0758,-0.0298 0.0708,-0.0314 0.0657,-0.0328 0.0607,-0.034 0.0556,-0.035 0.0505,-0.0358 0.0453,-0.0363 0.0402,-0.0367 0.0351,-0.0369 0.03,-0.0369 0.0249,-0.0367 0.0198,-0.0363 0.0148,-0.0357 0.01,-0.0349 0.005,-0.034 -9e-5,-0.0328 -0.005,-0.0314 -0.007,-0.0226 -0.0641,-0.18965 -0.0596,-0.19108 -0.008,-0.0223 -0.0145,-0.0283 -0.0192,-0.0266 -0.0239,-0.0246 -0.0285,-0.0225 -0.033,-0.0202 -0.0374,-0.0177 -0.0417,-0.0151 -0.046,-0.0122 -0.0501,-0.009 -0.0541,-0.006 -0.058,-0.003 -0.0618,7.2e-4 -0.0655,0.004 -0.0691,0.008 -0.0725,0.0121 -0.0757,0.0162 -0.0789,0.0204 -0.14278,0.0439 -0.087,0.0119 -0.15144,0.008 -0.10204,-6.6e-4 -0.11736,-0.006 -0.13278,-0.012 -0.14912,-0.0198 -0.16487,-0.029 -0.1793,-0.0393 -0.1936,-0.051 -0.20686,-0.0639 -0.19659,-0.0695 a 11,11 0 0 1 -0.10864,-0.68597 l 0.16548,-0.12688 0.17698,-0.12472 0.16836,-0.10837 0.15837,-0.0928 0.14785,-0.0785 0.1357,-0.0649 0.12257,-0.0525 0.10985,-0.0417 0.0968,-0.0322 0.14655,-0.039 0.0864,-0.0156 0.14937,-0.002 0.0813,-0.005 0.0771,-0.008 0.0727,-0.0109 0.0682,-0.0136 0.0636,-0.0161 0.059,-0.0184 0.0543,-0.0206 0.0496,-0.0225 0.0448,-0.0243 0.0399,-0.0259 0.035,-0.0272 0.0301,-0.0284 0.0251,-0.0294 0.0201,-0.0302 0.0151,-0.0308 0.0101,-0.0312 0.005,-0.0314 4.5e-4,-0.0236 -0.002,-0.20018 0.002,-0.20016 -4.5e-4,-0.0236 -0.005,-0.0314 -0.0101,-0.0312 -0.0151,-0.0308 -0.0201,-0.0302 -0.0251,-0.0294 -0.0301,-0.0284 -0.035,-0.0272 -0.0399,-0.0258 -0.0448,-0.0243 -0.0496,-0.0225 -0.0543,-0.0206 -0.059,-0.0184 -0.0636,-0.0161 -0.0682,-0.0136 -0.0727,-0.0109 -0.0771,-0.008 -0.0813,-0.005 -0.14937,-0.002 -0.0864,-0.0156 -0.14655,-0.039 -0.0968,-0.0322 -0.10985,-0.0417 -0.12257,-0.0525 -0.1357,-0.0649 -0.14785,-0.0785 -0.15837,-0.0928 -0.16836,-0.10837 -0.17698,-0.12472 -0.16547,-0.12688 a 11,11 0 0 1 0.10864,-0.68597 l 0.19659,-0.0695 0.20686,-0.0639 0.1936,-0.051 0.1793,-0.0393 0.16487,-0.029 0.14912,-0.0198 0.13278,-0.012 0.11736,-0.006 0.10204,-6.6e-4 0.15144,0.008 0.087,0.0119 0.14278,0.0439 0.0789,0.0204 0.0758,0.0162 0.0725,0.0121 0.0691,0.008 0.0655,0.004 0.0618,7.2e-4 0.058,-0.003 0.0541,-0.006 0.0501,-0.009 0.046,-0.0122 0.0417,-0.0151 0.0374,-0.0177 0.033,-0.0202 0.0285,-0.0225 0.0239,-0.0246 0.0192,-0.0266 0.0145,-0.0283 0.008,-0.0223 0.0596,-0.19108 0.0641,-0.18965 0.007,-0.0226 0.005,-0.0314 9e-5,-0.0328 -0.005,-0.034 -0.01,-0.0349 -0.0148,-0.0357 -0.0198,-0.0363 -0.0249,-0.0367 -0.03,-0.0369 -0.0351,-0.0369 -0.0402,-0.0367 -0.0453,-0.0363 -0.0505,-0.0358 -0.0556,-0.035 -0.0607,-0.034 -0.0657,-0.0328 -0.0708,-0.0314 -0.0758,-0.0298 -0.14134,-0.0484 -0.0773,-0.0415 -0.12731,-0.0824 -0.0822,-0.0605 -0.0916,-0.0736 -0.10036,-0.0878 -0.109,-0.10367 -0.11636,-0.12035 -0.12194,-0.1372 -0.12663,-0.15509 -0.12978,-0.17331 -0.11817,-0.1718 a 11,11 0 0 1 0.31531,-0.61883 l 0.20845,-0.005 0.21649,0.003 0.19991,0.0113 0.18267,0.018 0.16575,0.0234 0.14794,0.0272 0.13,0.0296 0.11338,0.0308 0.0973,0.0309 0.1415,0.0546 0.079,0.0382 0.12222,0.0859 0.0687,0.0438 0.067,0.0388 0.0652,0.0339 0.0632,0.0291 0.0609,0.0244 0.0586,0.0198 0.0561,0.0153 0.0533,0.0109 0.0505,0.007 0.0475,0.002 0.0443,-0.001 0.041,-0.005 0.0376,-0.009 0.034,-0.0126 0.0303,-0.016 0.0265,-0.0193 0.0225,-0.0224 0.0142,-0.0188 0.11577,-0.1633 0.11953,-0.16056 0.0135,-0.0193 0.0144,-0.0283 0.0102,-0.0312 0.006,-0.0338 10e-4,-0.0362 -0.003,-0.0385 -0.008,-0.0407 -0.0123,-0.0426 -0.0171,-0.0444 -0.022,-0.046 -0.0269,-0.0474 -0.0319,-0.0486 -0.0369,-0.0496 -0.042,-0.0504 -0.0472,-0.0511 -0.0524,-0.0515 -0.0576,-0.0517 -0.0629,-0.0518 -0.11946,-0.0897 -0.0607,-0.0634 -0.0956,-0.11772 -0.0594,-0.0829 -0.0644,-0.0983 -0.0683,-0.11448 -0.0716,-0.13229 -0.0735,-0.15041 -0.0736,-0.16816 -0.0725,-0.18664 -0.0699,-0.20492 -0.0593,-0.19992 a 11,11 0 0 1 0.4911,-0.4911 l 0.19991,0.0593 0.20493,0.0699 0.18663,0.0725 0.16817,0.0736 0.15041,0.0735 0.13228,0.0716 0.11449,0.0683 0.0983,0.0644 0.0829,0.0594 0.11771,0.0956 0.0634,0.0607 0.0897,0.11947 0.0518,0.0629 0.0518,0.0576 0.0515,0.0524 0.0511,0.0472 0.0504,0.042 0.0496,0.0369 0.0486,0.0319 0.0474,0.0269 0.046,0.022 0.0444,0.0171 0.0426,0.0123 0.0407,0.008 0.0385,0.003 0.0362,-0.001 0.0338,-0.006 0.0312,-0.0102 0.0283,-0.0144 0.0193,-0.0135 0.16057,-0.11954 0.1633,-0.11576 0.0188,-0.0142 0.0224,-0.0225 0.0193,-0.0265 0.016,-0.0303 0.0126,-0.034 0.009,-0.0376 0.005,-0.041 0.001,-0.0443 -0.003,-0.0475 -0.007,-0.0505 -0.0109,-0.0533 -0.0153,-0.056 -0.0198,-0.0586 -0.0244,-0.0609 -0.0291,-0.0632 -0.0339,-0.0652 -0.0388,-0.067 -0.0438,-0.0687 -0.0859,-0.12222 -0.0382,-0.079 -0.0546,-0.14151 -0.0309,-0.0973 -0.0308,-0.11338 -0.0296,-0.12999 -0.0272,-0.14795 -0.0234,-0.16575 -0.018,-0.18267 -0.0113,-0.19991 -0.003,-0.21648 0.005,-0.20846 a 11,11 0 0 1 0.61882,-0.3153 l 0.17181,0.11816 0.17331,0.12978 0.15509,0.12663 0.1372,0.12195 0.12034,0.11635 0.10368,0.109 0.0878,0.10036 0.0736,0.0916 0.0605,0.0822 0.0824,0.12731 0.0415,0.0773 0.0484,0.14134 0.0298,0.0758 0.0314,0.0708 0.0328,0.0657 0.034,0.0607 0.035,0.0556 0.0358,0.0505 0.0364,0.0453 0.0367,0.0402 0.0369,0.0351 0.0369,0.03 0.0367,0.0249 0.0363,0.0198 0.0357,0.0148 0.0349,0.01 0.034,0.005 0.0328,-9e-5 0.0314,-0.005 0.0226,-0.007 0.18964,-0.0641 0.19108,-0.0596 0.0223,-0.008 0.0283,-0.0145 0.0266,-0.0192 0.0246,-0.0239 0.0225,-0.0285 0.0202,-0.033 0.0177,-0.0374 0.0151,-0.0417 0.0122,-0.046 0.009,-0.0501 0.006,-0.0541 0.003,-0.058 -7.3e-4,-0.0618 -0.004,-0.0655 -0.008,-0.0691 -0.0121,-0.0725 -0.0162,-0.0757 -0.0204,-0.0789 -0.0439,-0.14278 -0.0119,-0.087 -0.008,-0.15144 6.6e-4,-0.10203 0.006,-0.11736 0.012,-0.13279 0.0198,-0.14912 0.029,-0.16487 0.0393,-0.17929 0.051,-0.19361 0.0639,-0.20686 0.0695,-0.19658 a 11,11 0 0 1 0.68597,-0.10865 l 0.12689,0.16547 0.12472,0.17698 0.10837,0.16836 0.0928,0.15837 0.0785,0.14785 0.0649,0.1357 0.0525,0.12257 0.0417,0.10985 0.0322,0.0968 0.039,0.14655 0.0156,0.0864 0.002,0.14937 0.005,0.0813 0.008,0.0771 0.0109,0.0727 0.0136,0.0682 0.0161,0.0636 0.0184,0.059 0.0206,0.0543 0.0225,0.0496 0.0243,0.0448 0.0258,0.0399 0.0272,0.035 0.0284,0.0301 0.0294,0.0251 0.0302,0.0201 0.0308,0.0151 0.0312,0.0101 0.0314,0.005 0.0236,4.5e-4 0.20015,-0.002 0.20016,0.002 0.0236,-4.5e-4 0.0314,-0.005 0.0312,-0.0101 0.0308,-0.0151 0.0302,-0.0201 0.0294,-0.0251 0.0284,-0.0301 0.0272,-0.035 0.0258,-0.0399 0.0243,-0.0448 0.0225,-0.0496 0.0206,-0.0543 0.0184,-0.059 0.0161,-0.0636 0.0136,-0.0682 0.0109,-0.0727 0.008,-0.0771 0.005,-0.0813 0.002,-0.14937 0.0156,-0.0864 0.039,-0.14655 0.0322,-0.0968 0.0417,-0.10985 0.0525,-0.12257 0.0649,-0.1357 0.0785,-0.14785 0.0928,-0.15837 0.10837,-0.16836 0.12472,-0.17698 0.12688,-0.16547 a 11,11 0 0 1 0.68597,0.10865 l 0.0695,0.19658 0.0639,0.20686 0.051,0.19361 0.0393,0.17929 0.029,0.16487 0.0198,0.14912 0.012,0.13279 0.006,0.11736 6.7e-4,0.10203 -0.008,0.15144 -0.0119,0.087 -0.0439,0.14278 -0.0204,0.0789 -0.0162,0.0757 -0.0121,0.0725 -0.008,0.0691 -0.004,0.0655 -7.3e-4,0.0618 0.003,0.058 0.006,0.0541 0.009,0.0501 0.0122,0.046 0.0151,0.0417 0.0177,0.0374 0.0202,0.033 0.0225,0.0285 0.0246,0.0239 0.0266,0.0192 0.0283,0.0145 0.0223,0.008 0.19109,0.0596 0.18964,0.0641 0.0226,0.007 0.0314,0.005 0.0328,9e-5 0.034,-0.005 0.0349,-0.01 0.0357,-0.0148 0.0363,-0.0198 0.0367,-0.0249 0.0369,-0.03 0.0369,-0.0351 0.0367,-0.0402 0.0364,-0.0453 0.0358,-0.0504 0.035,-0.0556 0.034,-0.0607 0.0328,-0.0657 0.0314,-0.0708 0.0298,-0.0758 0.0484,-0.14133 0.0415,-0.0773 0.0824,-0.12732 0.0605,-0.0822 0.0736,-0.0916 0.0878,-0.10036 0.10368,-0.109 0.12034,-0.11635 0.1372,-0.12195 0.15509,-0.12663 0.17331,-0.12978 0.1718,-0.11816 a 11,11 0 0 1 0.61883,0.3153 l 0.005,0.20846 -0.003,0.21648 -0.0113,0.19991 -0.018,0.18267 -0.0234,0.16575 -0.0272,0.14795 -0.0296,0.12999 -0.0308,0.11338 -0.0309,0.0973 -0.0546,0.14151 -0.0382,0.079 -0.0859,0.12222 -0.0438,0.0687 -0.0388,0.067 -0.0339,0.0652 -0.0291,0.0632 -0.0244,0.0609 -0.0198,0.0586 -0.0153,0.056 -0.0109,0.0533 -0.007,0.0505 -0.002,0.0475 0.001,0.0443 0.005,0.041 0.009,0.0376 0.0126,0.034 0.016,0.0303 0.0193,0.0265 0.0224,0.0225 0.0188,0.0142 0.1633,0.11576 0.16056,0.11954 0.0193,0.0135 0.0283,0.0144 0.0312,0.0102 0.0338,0.006 0.0362,10e-4 0.0385,-0.003 0.0407,-0.008 0.0426,-0.0123 0.0444,-0.0171 0.046,-0.022 0.0474,-0.0269 0.0486,-0.0319 0.0496,-0.0369 0.0504,-0.042 0.0511,-0.0472 0.0515,-0.0524 0.0517,-0.0577 0.0518,-0.0629 0.0897,-0.11947 0.0634,-0.0607 0.11772,-0.0956 0.0829,-0.0594 0.0983,-0.0644 0.11449,-0.0683 0.13228,-0.0716 0.15041,-0.0735 0.16817,-0.0736 0.18663,-0.0725 0.20493,-0.0699 0.19991,-0.0593 a 11,11 0 0 1 0.4911,0.4911 l -0.0593,0.19992 -0.0699,0.20492 -0.0725,0.18664 -0.0736,0.16816 -0.0735,0.15041 -0.0716,0.13229 -0.0683,0.11448 -0.0644,0.0983 -0.0594,0.0829 -0.0956,0.11772 -0.0607,0.0634 -0.11947,0.0897 -0.0629,0.0518 -0.0576,0.0517 -0.0524,0.0515 -0.0472,0.0511 -0.042,0.0504 -0.0369,0.0496 -0.0319,0.0486 -0.0269,0.0474 -0.022,0.046 -0.0171,0.0444 -0.0123,0.0426 -0.008,0.0407 -0.003,0.0386 10e-4,0.0362 0.006,0.0338 0.0102,0.0312 0.0144,0.0283 0.0135,0.0193 0.11954,0.16056 0.11577,0.1633 0.0142,0.0188 0.0225,0.0225 0.0265,0.0193 0.0303,0.016 0.034,0.0126 0.0376,0.009 0.041,0.005 0.0443,0.001 0.0475,-0.002 0.0505,-0.007 0.0533,-0.0109 0.0561,-0.0153 0.0586,-0.0198 0.0609,-0.0244 0.0632,-0.0291 0.0652,-0.0339 0.067,-0.0388 0.0687,-0.0438 0.12221,-0.0859 0.079,-0.0382 0.14151,-0.0546 0.0972,-0.0309 0.11338,-0.0308 0.12999,-0.0296 0.14795,-0.0272 0.16575,-0.0234 0.18267,-0.018 0.19991,-0.0113 0.21648,-0.003 0.20846,0.005 a 11,11 0 0 1 0.3153,0.61883 l -0.11816,0.1718 -0.12978,0.17331 -0.12663,0.15509 -0.12194,0.1372 -0.11636,0.12035 -0.109,0.10367 -0.10036,0.0878 -0.0916,0.0736 -0.0822,0.0605 -0.12731,0.0824 -0.0773,0.0415 -0.14134,0.0484 -0.0758,0.0298 -0.0708,0.0314 -0.0657,0.0328 -0.0607,0.034 -0.0556,0.035 -0.0505,0.0358 -0.0453,0.0363 -0.0402,0.0367 -0.0351,0.0369 -0.03,0.0369 -0.0249,0.0367 -0.0198,0.0363 -0.0148,0.0357 -0.01,0.0349 -0.005,0.034 9e-5,0.0328 0.005,0.0314 0.007,0.0226 0.0641,0.18965 0.0596,0.19108 0.008,0.0223 0.0145,0.0283 0.0192,0.0266 0.0239,0.0246 0.0285,0.0225 0.033,0.0202 0.0374,0.0177 0.0417,0.0151 0.046,0.0122 0.0501,0.009 0.0541,0.006 0.058,0.003 0.0618,-7.2e-4 0.0655,-0.004 0.069,-0.008 0.0725,-0.0121 0.0757,-0.0162 0.0789,-0.0204 0.14278,-0.0439 0.087,-0.0119 0.15144,-0.008 0.10204,6.6e-4 0.11735,0.006 0.13279,0.012 0.14912,0.0198 0.16487,0.029 0.17929,0.0393 0.19361,0.051 0.20686,0.0639 0.19659,0.0695 a 11,11 0 0 1 0.10864,0.68597 l -0.16547,0.12688 -0.17698,0.12472 -0.16836,0.10837 -0.15837,0.0928 -0.14785,0.0785 -0.1357,0.0649 -0.12257,0.0525 -0.10985,0.0417 -0.0968,0.0322 -0.14655,0.039 -0.0864,0.0156 -0.14937,0.002 -0.0813,0.005 -0.0771,0.008 -0.0727,0.0109 -0.0682,0.0136 -0.0637,0.0161 -0.059,0.0184 -0.0543,0.0206 -0.0496,0.0225 -0.0448,0.0243 -0.0399,0.0259 -0.035,0.0272 -0.0301,0.0284 -0.0251,0.0294 -0.0201,0.0302 -0.0151,0.0308 -0.01,0.0312 -0.005,0.0314 -4.5e-4,0.0236 0.002,0.20017 -0.002,0.20016 4.5e-4,0.0236 0.005,0.0314 0.01,0.0312 0.0151,0.0308 0.0201,0.0302 0.0251,0.0294 0.0301,0.0284 0.035,0.0272 0.0399,0.0259 0.0448,0.0243 0.0496,0.0225 0.0543,0.0206 0.059,0.0184 0.0636,0.0161 0.0682,0.0136 0.0727,0.0109 0.0771,0.008 0.0813,0.005 0.14937,0.002 0.0864,0.0156 0.14655,0.039 0.0968,0.0322 0.10985,0.0417 0.12257,0.0525 0.1357,0.0649 0.14785,0.0785 0.15837,0.0928 0.16836,0.10837 0.17698,0.12472 0.16548,0.12689 a 11,11 0 0 1 -0.10865,0.68597 l -0.19659,0.0695 -0.20686,0.0639 -0.1936,0.051 -0.1793,0.0393 -0.16487,0.029 -0.14912,0.0198 -0.13278,0.012 -0.11736,0.006 -0.10204,6.6e-4 -0.15144,-0.008 -0.087,-0.0119 -0.14278,-0.0439 -0.0789,-0.0204 -0.0757,-0.0162 -0.0725,-0.0121 -0.0691,-0.008 -0.0655,-0.004 -0.0618,-7.2e-4 -0.058,0.003 -0.0541,0.006 -0.0501,0.009 -0.046,0.0122 -0.0417,0.0151 -0.0374,0.0177 -0.033,0.0202 -0.0285,0.0225 -0.0239,0.0246 -0.0192,0.0266 -0.0145,0.0283 -0.008,0.0223 -0.0596,0.19108 -0.0641,0.18964 -0.007,0.0226 -0.005,0.0314 -9e-5,0.0328 0.005,0.034 0.01,0.0349 0.0148,0.0357 0.0198,0.0363 0.0249,0.0367 0.03,0.0369 0.0351,0.0369 0.0402,0.0367 0.0453,0.0363 0.0505,0.0358 0.0556,0.035 0.0607,0.034 0.0657,0.0328 0.0708,0.0314 0.0758,0.0298 0.14134,0.0484 0.0773,0.0415 0.12732,0.0824 0.0822,0.0605 0.0916,0.0736 0.10036,0.0878 0.10899,0.10368 0.11636,0.12034 0.12194,0.1372 0.12663,0.15509 0.12978,0.17331 0.11817,0.17181 a 11,11 0 0 1 -0.3153,0.61884 l -0.20845,0.005 -0.21649,-0.003 -0.1999,-0.0113 -0.18267,-0.018 -0.16576,-0.0234 -0.14794,-0.0272 -0.13,-0.0296 -0.11338,-0.0308 -0.0973,-0.0309 -0.1415,-0.0546 -0.079,-0.0382 -0.12222,-0.0859 -0.0687,-0.0438 -0.067,-0.0388 -0.0652,-0.0339 -0.0632,-0.0291 -0.0609,-0.0244 -0.0586,-0.0198 -0.056,-0.0153 -0.0534,-0.0109 -0.0505,-0.007 -0.0475,-0.002 -0.0443,10e-4 -0.041,0.005 -0.0376,0.009 -0.034,0.0126 -0.0303,0.016 -0.0265,0.0193 -0.0225,0.0225 -0.0142,0.0188 -0.11576,0.1633 -0.11954,0.16056 -0.0135,0.0193 -0.0144,0.0283 -0.0102,0.0312 -0.006,0.0338 -0.002,0.0362 0.003,0.0386 0.008,0.0407 0.0123,0.0426 0.0171,0.0444 0.022,0.046 0.0269,0.0474 0.0319,0.0486 0.0369,0.0496 0.042,0.0504 0.0472,0.0511 0.0524,0.0515 0.0577,0.0517 0.0629,0.0518 0.11947,0.0897 0.0607,0.0634 0.0956,0.11772 0.0594,0.0829 0.0644,0.0983 0.0683,0.11449 0.0716,0.13228 0.0735,0.15041 0.0736,0.16817 0.0725,0.18663 0.0699,0.20492 0.0593,0.19992 a 11,11 0 0 1 -0.49111,0.4911 l -0.19991,-0.0593 -0.20493,-0.0699 -0.18663,-0.0725 -0.16816,-0.0736 -0.15042,-0.0735 -0.13228,-0.0716 -0.11449,-0.0683 -0.0983,-0.0644 -0.0829,-0.0594 -0.11771,-0.0956 -0.0634,-0.0607 -0.0897,-0.11946 -0.0518,-0.0629 -0.0517,-0.0577 -0.0515,-0.0524 -0.0511,-0.0472 -0.0504,-0.042 -0.0496,-0.0369 -0.0486,-0.0319 -0.0474,-0.0269 -0.046,-0.022 -0.0444,-0.0171 -0.0426,-0.0123 -0.0407,-0.008 -0.0385,-0.003 -0.0362,10e-4 -0.0338,0.006 -0.0312,0.0102 -0.0283,0.0144 -0.0193,0.0135 -0.16057,0.11953 -0.1633,0.11577 -0.0188,0.0142 -0.0225,0.0225 -0.0193,0.0265 -0.016,0.0303 -0.0126,0.034 -0.009,0.0376 -0.005,0.041 -0.001,0.0443 0.002,0.0475 0.007,0.0505 0.0109,0.0533 0.0153,0.056 0.0198,0.0586 0.0244,0.0609 0.0291,0.0632 0.0339,0.0652 0.0388,0.067 0.0438,0.0687 0.0859,0.12222 0.0382,0.079 0.0546,0.1415 0.0309,0.0973 0.0308,0.11338 0.0296,0.13 0.0272,0.14794 0.0234,0.16575 0.018,0.18267 0.0113,0.19991 0.003,0.21649 -0.005,0.20845 a 11,11 0 0 1 -0.61874,0.31531 l -0.17181,-0.11817 -0.17331,-0.12977 -0.15509,-0.12664 -0.1372,-0.12194 -0.12034,-0.11635 -0.10368,-0.109 -0.0878,-0.10036 -0.0736,-0.0916 -0.0605,-0.0822 -0.0824,-0.12732 -0.0415,-0.0773 -0.0484,-0.14133 -0.0298,-0.0758 -0.0314,-0.0708 -0.0328,-0.0657 -0.034,-0.0607 -0.035,-0.0556 -0.0358,-0.0504 -0.0363,-0.0453 -0.0367,-0.0402 -0.0369,-0.0351 -0.0369,-0.03 -0.0367,-0.0249 -0.0363,-0.0198 -0.0357,-0.0148 -0.0349,-0.01 -0.034,-0.005 -0.0328,8e-5 -0.0314,0.005 -0.0226,0.007 -0.18964,0.0641 -0.19108,0.0596 -0.0223,0.008 -0.0283,0.0145 -0.0266,0.0192 -0.0246,0.0239 -0.0225,0.0285 -0.0202,0.033 -0.0177,0.0374 -0.0151,0.0417 -0.0122,0.046 -0.009,0.0501 -0.006,0.0541 -0.003,0.058 7.2e-4,0.0618 0.004,0.0655 0.008,0.0691 0.0121,0.0725 0.0162,0.0757 0.0204,0.0789 0.0439,0.14278 0.0119,0.087 0.008,0.15144 -6.6e-4,0.10204 -0.006,0.11736 -0.012,0.13278 -0.0198,0.14912 -0.029,0.16487 -0.0393,0.1793 -0.051,0.19361 -0.0639,0.20686 -0.0695,0.19658 a 11,11 0 0 1 -0.68599,0.10864 l -0.12695,-0.16548 -0.12472,-0.17698 -0.10837,-0.16836 -0.0928,-0.15837 -0.0785,-0.14785 -0.0649,-0.1357 -0.0525,-0.12257 -0.0417,-0.10985 -0.0322,-0.0968 -0.039,-0.14655 -0.0156,-0.0864 -0.002,-0.14937 -0.005,-0.0813 -0.008,-0.0771 -0.0109,-0.0727 -0.0136,-0.0682 -0.0161,-0.0636 -0.0184,-0.059 -0.0206,-0.0543 -0.0225,-0.0496 -0.0243,-0.0448 -0.0258,-0.0399 -0.0272,-0.035 -0.0284,-0.0301 -0.0294,-0.0251 -0.0302,-0.0201 -0.0308,-0.0151 -0.0312,-0.0101 -0.0314,-0.005 -0.0236,-4.5e-4 -0.20016,0.002 -0.20016,-0.002 -0.0236,4.5e-4 -0.0314,0.005 -0.0312,0.0101 -0.0308,0.0151 -0.0302,0.0201 -0.0294,0.0251 -0.0284,0.0301 -0.0272,0.035 -0.0258,0.0399 -0.0243,0.0448 -0.0225,0.0496 -0.0206,0.0543 -0.0184,0.059 -0.0161,0.0636 -0.0136,0.0682 -0.0109,0.0727 -0.008,0.0771 -0.005,0.0813 -0.002,0.14937 -0.0156,0.0864 -0.039,0.14655 -0.0322,0.0968 -0.0417,0.10985 -0.0525,0.12257 -0.0649,0.1357 -0.0785,0.14785 -0.0928,0.15837 -0.10837,0.16836 -0.12472,0.17698 -0.12688,0.16548 a 11,11 0 0 1 -0.68597,-0.10865 l -0.0695,-0.19659 -0.0639,-0.20685 -0.051,-0.19361 -0.0393,-0.1793 -0.029,-0.16487 -0.0198,-0.14912 -0.012,-0.13278 -0.006,-0.11736 -6.7e-4,-0.10204 0.008,-0.15144 0.0119,-0.087 0.0439,-0.14278 0.0204,-0.0789 0.0162,-0.0758 0.0121,-0.0725 0.008,-0.069 0.004,-0.0655 7.3e-4,-0.0618 -0.003,-0.058 -0.006,-0.0541 -0.009,-0.0501 -0.0122,-0.046 -0.0151,-0.0417 -0.0177,-0.0374 -0.0202,-0.033 -0.0225,-0.0285 -0.0246,-0.0239 -0.0266,-0.0192 -0.0283,-0.0145 -0.0223,-0.008 -0.19109,-0.0596 -0.18964,-0.0641 -0.0226,-0.007 -0.0314,-0.005 -0.0328,-9e-5 -0.034,0.005 -0.0349,0.01 -0.0357,0.0148 -0.0363,0.0198 -0.0367,0.0249 -0.0369,0.03 -0.0369,0.0351 -0.0367,0.0402 -0.0363,0.0453 -0.0358,0.0505 -0.035,0.0556 -0.034,0.0607 -0.0328,0.0657 -0.0314,0.0708 -0.0298,0.0758 -0.0484,0.14134 -0.0415,0.0773 -0.0824,0.12732 -0.0605,0.0822 -0.0736,0.0916 -0.0878,0.10036 -0.10368,0.10899 -0.12034,0.11636 -0.1372,0.12194 -0.15509,0.12663 -0.17331,0.12978 -0.1718,0.11817 a 11,11 0 0 1 -0.61887,-0.3153 l -0.005,-0.20845 0.003,-0.21649 0.0113,-0.1999 0.018,-0.18267 0.0234,-0.16576 0.0272,-0.14794 0.0296,-0.13 0.0308,-0.11338 0.0309,-0.0973 0.0546,-0.1415 0.0382,-0.079 0.0859,-0.12222 0.0438,-0.0687 0.0388,-0.067 0.0339,-0.0652 0.0291,-0.0632 0.0244,-0.0609 0.0198,-0.0586 0.0153,-0.056 0.0109,-0.0533 0.007,-0.0505 0.002,-0.0475 -0.001,-0.0443 -0.005,-0.041 -0.009,-0.0376 -0.0126,-0.034 -0.016,-0.0303 -0.0193,-0.0265 -0.0224,-0.0225 -0.0188,-0.0142 -0.1633,-0.11576 -0.16057,-0.11954 -0.0193,-0.0135 -0.0283,-0.0144 -0.0312,-0.0102 -0.0338,-0.006 -0.0362,-0.001 -0.0385,0.003 -0.0407,0.008 -0.0426,0.0123 -0.0444,0.0171 -0.046,0.022 -0.0474,0.0269 -0.0486,0.0319 -0.0496,0.0369 -0.0504,0.042 -0.0511,0.0472 -0.0515,0.0524 -0.0517,0.0576 -0.0518,0.0629 -0.0897,0.11947 -0.0634,0.0607 -0.11771,0.0956 -0.0829,0.0594 -0.0983,0.0644 -0.11449,0.0683 -0.13228,0.0716 -0.15041,0.0735 -0.16817,0.0736 -0.18663,0.0725 -0.20493,0.0699 -0.19991,0.0593 a 11,11 0 0 1 -0.49114,-0.49111 l 0.0593,-0.19991 0.0699,-0.20493 0.0725,-0.18663 0.0736,-0.16816 0.0735,-0.15042 0.0716,-0.13228 0.0683,-0.11449 0.0644,-0.0983 0.0594,-0.0829 0.0956,-0.11771 0.0607,-0.0634 0.11947,-0.0897 0.0629,-0.0518 0.0576,-0.0517 0.0524,-0.0515 0.0472,-0.0511 0.042,-0.0504 0.0369,-0.0496 0.0319,-0.0486 0.0269,-0.0474 0.022,-0.046 0.0171,-0.0444 0.0123,-0.0426 0.008,-0.0407 0.003,-0.0385 -0.001,-0.0363 -0.006,-0.0338 -0.0102,-0.0312 -0.0144,-0.0284 -0.0135,-0.0193 -0.11954,-0.16056 -0.11576,-0.16331 -0.0142,-0.0188 -0.0225,-0.0224 -0.0265,-0.0193 -0.0303,-0.016 -0.034,-0.0126 -0.0376,-0.009 -0.041,-0.005 -0.0443,-10e-4 -0.0475,0.002 -0.0505,0.007 -0.0534,0.0109 -0.056,0.0153 -0.0586,0.0198 -0.0609,0.0244 -0.0632,0.0291 -0.0652,0.0339 -0.067,0.0388 -0.0687,0.0438 -0.12222,0.0859 -0.079,0.0382 -0.1415,0.0546 -0.0972,0.0309 -0.11338,0.0308 -0.13,0.0296 -0.14794,0.0272 -0.16576,0.0234 -0.18267,0.018 -0.1999,0.0113 -0.21649,0.003 -0.20845,-0.005 a 11,11 0 0 1 -0.31531,-0.61882 z"
       style="fill:none;stroke:#ff0000;stroke-width:0.025;stroke-miterlimit:4;stroke-dasharray:none;stroke-opacity:1" />
    <path
       style="fill:none;stroke:#ff0000;stroke-width:0.025;stroke-miterlimit:4;stroke-dasharray:none;stroke-opacity:1"
       id="SvgjsCircle1949"
       r="22"
       cy="-266.1553"
       cx="37.555435" />
    <path
       style="fill:none;stroke:#ff0000;stroke-width:0.025;stroke-miterlimit:4;stroke-dasharray:none;stroke-opacity:1"
       inkscape:connector-curvature="0"
       d="m 68.231568,-268.89636 -0.22288,0.1198 -0.21571,0.11018 -0.20533,0.0995 -0.19747,0.0906 -0.18738,0.0813 -0.17629,0.0721 -0.16814,0.0648 -0.15773,0.057 -0.28113,0.0918 -0.14697,0.0427 -0.0792,0.0265 -0.0655,0.0287 -0.0517,0.0303 -0.0379,0.0314 -0.0241,0.0319 -0.007,0.016 -0.003,0.0159 4e-5,0.0157 0.0125,0.22339 0.0109,0.22346 0.002,0.0156 0.005,0.0154 0.008,0.0152 0.0273,0.0292 0.041,0.0273 0.0546,0.0247 0.0681,0.0217 0.0815,0.018 0.15063,0.0271 0.28918,0.0619 0.16282,0.0401 0.17399,0.0468 0.18286,0.0533 0.19486,0.0613 0.20586,0.0695 0.21461,0.0775 0.22604,0.087 0.23419,0.0958 0.2029,0.0877 a 31,31 0 0 1 0,0.7856 l -0.2029,0.0877 -0.23419,0.0958 -0.22604,0.087 -0.21461,0.0775 -0.20586,0.0695 -0.19486,0.0613 -0.18286,0.0533 -0.17399,0.0468 -0.16282,0.0402 -0.28918,0.0619 -0.15063,0.0271 -0.0815,0.0181 -0.0681,0.0217 -0.0546,0.0247 -0.041,0.0273 -0.0273,0.0292 -0.008,0.0152 -0.005,0.0155 -0.002,0.0156 -0.0109,0.22346 -0.0125,0.22339 -4e-5,0.0157 0.003,0.0159 0.007,0.016 0.0241,0.0319 0.0379,0.0314 0.0517,0.0303 0.0655,0.0287 0.0792,0.0265 0.14697,0.0427 0.28113,0.0918 0.15773,0.057 0.16814,0.0648 0.17629,0.0721 0.18738,0.0813 0.19747,0.0906 0.20533,0.0995 0.21571,0.11018 0.22288,0.1198 0.19263,0.10842 a 31,31 0 0 1 -0.0821,0.78129 l -0.21096,0.066 -0.24292,0.0708 -0.2339,0.0629 -0.22154,0.0547 -0.212,0.0476 -0.20019,0.0406 -0.18743,0.0339 -0.17793,0.0284 -0.16613,0.0229 -0.29406,0.0313 -0.15264,0.0112 -0.083,0.009 -0.07,0.0144 -0.0569,0.0189 -0.0436,0.0228 -0.0302,0.0262 -0.01,0.0142 -0.007,0.0148 -0.003,0.0154 -0.0342,0.2211 -0.0358,0.22085 -0.002,0.0156 0.002,0.0162 0.005,0.0166 0.0206,0.0342 0.0344,0.0352 0.0483,0.0356 0.0621,0.0354 0.076,0.0346 0.14171,0.0578 0.26999,0.12068 0.15091,0.0731 0.16046,0.082 0.16778,0.0902 0.17785,0.10043 0.18691,0.11079 0.19381,0.12044 0.20301,0.13212 0.20914,0.14244 0.18024,0.12797 a 31,31 0 0 1 -0.16334,0.76843 l -0.2167,0.0436 -0.24899,0.0451 -0.2392,0.0381 -0.22604,0.0312 -0.21581,0.0252 -0.20334,0.0194 -0.18995,0.0141 -0.17992,0.01 -0.16761,0.005 -0.29573,4.2e-4 -0.15297,-0.005 -0.0835,7e-4 -0.0711,0.007 -0.0586,0.0128 -0.0458,0.0181 -0.0328,0.0229 -0.0115,0.0131 -0.008,0.0141 -0.005,0.015 -0.0571,0.21631 -0.0587,0.21591 -0.003,0.0154 2e-5,0.0162 0.003,0.017 0.0169,0.0362 0.0306,0.0386 0.0443,0.0404 0.0581,0.0417 0.072,0.0424 0.13489,0.0723 0.2559,0.14823 0.14245,0.0885 0.151,0.0983 0.15744,0.10722 0.16638,0.11848 0.17431,0.12971 0.18015,0.14004 0.18809,0.15262 0.19311,0.16353 0.16587,0.1461 a 31,31 0 0 1 -0.24276,0.74715 l -0.22008,0.0207 -0.25234,0.0188 -0.24187,0.0129 -0.22806,0.007 -0.21727,0.002 -0.20424,-0.002 -0.19039,-0.006 -0.17994,-0.009 -0.16727,-0.0121 -0.29415,-0.0305 -0.15163,-0.0208 -0.0831,-0.008 -0.0715,-4.4e-4 -0.0596,0.007 -0.0474,0.0133 -0.035,0.0194 -0.0128,0.0118 -0.01,0.0131 -0.006,0.0144 -0.0795,0.20915 -0.0809,0.20859 -0.005,0.0149 -0.002,0.0162 0.002,0.0173 0.0131,0.0378 0.0264,0.0416 0.0398,0.0448 0.0534,0.0475 0.0671,0.0496 0.1266,0.086 0.23899,0.17417 0.13242,0.1029 0.1399,0.11354 0.14537,0.12309 0.15309,0.13523 0.15979,0.14722 0.16453,0.1581 0.1711,0.17145 0.17496,0.18281 0.14969,0.16264 a 31,31 0 0 1 -0.31953,0.71768 l -0.22103,-0.002 -0.25292,-0.008 -0.2419,-0.0124 -0.22759,-0.0165 -0.21633,-0.0202 -0.20293,-0.0233 -0.18874,-0.0257 -0.17799,-0.028 -0.16508,-0.0296 -0.28935,-0.0611 -0.14862,-0.0365 -0.0818,-0.0167 -0.0711,-0.008 -0.06,3.9e-4 -0.0485,0.008 -0.0368,0.0156 -0.0139,0.0104 -0.0109,0.0121 -0.008,0.0136 -0.10088,0.19969 -0.10227,0.199 -0.006,0.0143 -0.003,0.0159 -2.2e-4,0.0174 0.009,0.0389 0.0219,0.0441 0.0349,0.0487 0.0482,0.0528 0.0616,0.0564 0.11691,0.0988 0.21949,0.19819 0.12093,0.11619 0.12727,0.12754 0.1317,0.13761 0.13812,0.15048 0.14352,0.16312 0.14711,0.17444 0.15224,0.18839 0.15489,0.2001 0.13187,0.17739 a 31,31 0 0 1 -0.3928,0.68035 l -0.21956,-0.0255 -0.25074,-0.0341 -0.23927,-0.0376 -0.22462,-0.0402 -0.21303,-0.0427 -0.19938,-0.0444 -0.18502,-0.0452 -0.17409,-0.0465 -0.16109,-0.0466 -0.28138,-0.091 -0.144,-0.0519 -0.0796,-0.0251 -0.0698,-0.0153 -0.0597,-0.006 -0.0491,0.003 -0.0382,0.0117 -0.0149,0.009 -0.0121,0.0109 -0.009,0.0127 -0.12119,0.18806 -0.12251,0.18721 -0.008,0.0136 -0.005,0.0155 -0.002,0.0173 0.005,0.0397 0.0171,0.0461 0.0296,0.0521 0.0424,0.0576 0.0554,0.0625 0.10595,0.11045 0.19756,0.22006 0.10813,0.12819 0.11324,0.14014 0.11659,0.15062 0.12163,0.1641 0.12569,0.17723 0.12807,0.18886 0.13171,0.20327 0.13313,0.21519 0.11261,0.19021 a 31,31 0 0 1 -0.46183,0.63557 l -0.2157,-0.0483 -0.2458,-0.0601 -0.23402,-0.0625 -0.21919,-0.0634 -0.20739,-0.0648 -0.19366,-0.065 -0.17928,-0.0643 -0.16828,-0.0644 -0.15532,-0.0632 -0.27034,-0.1199 -0.13778,-0.0666 -0.0766,-0.0333 -0.0679,-0.0225 -0.0587,-0.0121 -0.0492,-0.002 -0.0392,0.008 -0.0158,0.007 -0.0132,0.01 -0.0105,0.0117 -0.14019,0.17436 -0.14141,0.17338 -0.009,0.0127 -0.007,0.0148 -0.004,0.0169 7.4e-4,0.04 0.0122,0.0477 0.024,0.0549 0.0361,0.0617 0.0485,0.068 0.0938,0.12092 0.17348,0.2395 0.0941,0.13879 0.098,0.15122 0.10021,0.16198 0.10381,0.17591 0.10648,0.1894 0.10762,0.20121 0.10975,0.21593 0.1099,0.22792 0.0921,0.20094 a 31,31 0 0 1 -0.52566,0.58382 l -0.20947,-0.0706 -0.23817,-0.0855 -0.22622,-0.0866 -0.21135,-0.086 -0.19949,-0.0861 -0.1858,-0.0849 -0.17157,-0.0827 -0.16063,-0.0816 -0.14787,-0.0791 -0.25632,-0.1475 -0.13006,-0.0807 -0.0727,-0.0411 -0.0651,-0.0295 -0.0571,-0.0182 -0.0487,-0.007 -0.0398,0.003 -0.0165,0.006 -0.0141,0.008 -0.0117,0.0106 -0.15765,0.15875 -0.15875,0.15765 -0.0106,0.0117 -0.008,0.0141 -0.006,0.0165 -0.003,0.0398 0.007,0.0487 0.0182,0.0571 0.0295,0.0651 0.0411,0.0727 0.0807,0.13007 0.14749,0.25632 0.0791,0.14787 0.0816,0.16062 0.0827,0.17158 0.0849,0.1858 0.0861,0.19948 0.086,0.21136 0.0866,0.22622 0.0855,0.23816 0.0706,0.20947 a 31,31 0 0 1 -0.58381,0.52567 l -0.20094,-0.0921 -0.22793,-0.1099 -0.21593,-0.10975 -0.2012,-0.10762 -0.1894,-0.10648 -0.17591,-0.10381 -0.16199,-0.10021 -0.15121,-0.098 -0.13879,-0.0941 -0.2395,-0.17348 -0.12092,-0.0938 -0.068,-0.0485 -0.0617,-0.0361 -0.0549,-0.024 -0.0477,-0.0122 -0.04,-7.4e-4 -0.017,0.004 -0.0148,0.007 -0.0127,0.009 -0.17338,0.1414 -0.17436,0.14019 -0.0117,0.0105 -0.01,0.0132 -0.007,0.0158 -0.008,0.0393 0.002,0.0492 0.0121,0.0587 0.0225,0.0679 0.0333,0.0766 0.0666,0.13779 0.11989,0.27033 0.0632,0.15533 0.0644,0.16828 0.0643,0.17928 0.065,0.19365 0.0648,0.2074 0.0634,0.21918 0.0625,0.23403 0.0601,0.2458 0.0483,0.2157 a 31,31 0 0 1 -0.63556,0.46176 l -0.19021,-0.11261 -0.21519,-0.13312 -0.20328,-0.13172 -0.18885,-0.12806 -0.17723,-0.1257 -0.1641,-0.12163 -0.15062,-0.11659 -0.14015,-0.11324 -0.12819,-0.10813 -0.22005,-0.19756 -0.11045,-0.10595 -0.0625,-0.0554 -0.0576,-0.0424 -0.0521,-0.0296 -0.0462,-0.0171 -0.0397,-0.005 -0.0173,0.002 -0.0155,0.005 -0.0136,0.008 -0.18721,0.12251 -0.18806,0.1212 -0.0127,0.009 -0.0109,0.0121 -0.009,0.0149 -0.0117,0.0382 -0.003,0.0491 0.006,0.0597 0.0153,0.0698 0.0251,0.0796 0.0519,0.14399 0.091,0.28138 0.0466,0.16109 0.0464,0.17409 0.0453,0.18502 0.0444,0.19938 0.0427,0.21303 0.0402,0.22462 0.0376,0.23928 0.0341,0.25073 0.0255,0.21957 a 31,31 0 0 1 -0.68035,0.3928 l -0.1774,-0.13188 -0.20009,-0.15489 -0.1884,-0.15224 -0.17443,-0.1471 -0.16312,-0.14353 -0.15049,-0.13812 -0.1376,-0.1317 -0.12755,-0.12727 -0.11618,-0.12093 -0.1982,-0.21948 -0.0988,-0.11692 -0.0564,-0.0616 -0.0528,-0.0482 -0.0487,-0.0349 -0.0441,-0.0219 -0.0389,-0.009 -0.0174,2.3e-4 -0.0159,0.003 -0.0144,0.006 -0.19899,0.10226 -0.1997,0.10088 -0.0136,0.008 -0.0121,0.0109 -0.0104,0.0139 -0.0156,0.0368 -0.008,0.0485 -3.8e-4,0.06 0.008,0.071 0.0167,0.0818 0.0365,0.14862 0.0611,0.28936 0.0295,0.16508 0.028,0.17799 0.0257,0.18874 0.0233,0.20292 0.0202,0.21633 0.0165,0.22759 0.0124,0.2419 0.008,0.25292 0.002,0.22103 a 31,31 0 0 1 -0.71768,0.31953 l -0.16264,-0.14969 -0.18281,-0.17496 -0.17145,-0.1711 -0.1581,-0.16453 -0.14723,-0.15979 -0.13522,-0.15309 -0.12309,-0.14536 -0.11354,-0.13991 -0.10291,-0.13241 -0.17416,-0.239 -0.086,-0.1266 -0.0497,-0.0671 -0.0475,-0.0534 -0.0448,-0.0398 -0.0416,-0.0263 -0.0378,-0.0131 -0.0173,-0.002 -0.0162,0.002 -0.0149,0.005 -0.20859,0.0809 -0.20915,0.0794 -0.0144,0.006 -0.0131,0.01 -0.0118,0.0128 -0.0193,0.035 -0.0133,0.0474 -0.007,0.0596 4.4e-4,0.0715 0.008,0.0831 0.0208,0.15163 0.0305,0.29416 0.0121,0.16726 0.009,0.17994 0.006,0.19039 0.002,0.20425 -0.002,0.21726 -0.007,0.22806 -0.0129,0.24187 -0.0188,0.25235 -0.0207,0.22007 a 31,31 0 0 1 -0.74719,0.24274 l -0.1461,-0.16587 -0.16352,-0.19311 -0.15262,-0.18809 -0.14004,-0.18015 -0.12972,-0.17431 -0.11848,-0.16638 -0.10722,-0.15744 -0.0983,-0.151 -0.0885,-0.14245 -0.14823,-0.25589 -0.0723,-0.1349 -0.0424,-0.072 -0.0417,-0.0581 -0.0404,-0.0443 -0.0386,-0.0305 -0.0362,-0.0169 -0.017,-0.003 -0.0162,-2e-5 -0.0154,0.003 -0.21591,0.0587 -0.21631,0.0572 -0.015,0.005 -0.0141,0.008 -0.0131,0.0115 -0.0229,0.0328 -0.0181,0.0458 -0.0128,0.0586 -0.007,0.0711 -7e-4,0.0835 0.005,0.15297 -4.3e-4,0.29573 -0.005,0.16761 -0.01,0.17992 -0.0141,0.18996 -0.0194,0.20333 -0.0252,0.21581 -0.0312,0.22604 -0.0381,0.2392 -0.0451,0.24899 -0.0436,0.21671 a 31,31 0 0 1 -0.76843,0.16339 l -0.12797,-0.18023 -0.14244,-0.20915 -0.13212,-0.20301 -0.12044,-0.1938 -0.11078,-0.18691 -0.10044,-0.17786 -0.0902,-0.16778 -0.082,-0.16045 -0.0731,-0.15092 -0.12067,-0.26999 -0.0578,-0.14171 -0.0346,-0.076 -0.0354,-0.0621 -0.0356,-0.0483 -0.0352,-0.0344 -0.0342,-0.0206 -0.0166,-0.005 -0.0162,-0.002 -0.0156,0.002 -0.22086,0.0358 -0.2211,0.0342 -0.0154,0.003 -0.0148,0.007 -0.0142,0.01 -0.0262,0.0302 -0.0228,0.0436 -0.0189,0.0569 -0.0144,0.07 -0.009,0.083 -0.0112,0.15264 -0.0313,0.29406 -0.0229,0.16613 -0.0284,0.17793 -0.0339,0.18744 -0.0406,0.20019 -0.0476,0.21199 -0.0546,0.22154 -0.0629,0.2339 -0.0708,0.24293 -0.066,0.21096 a 31,31 0 0 1 -0.7813,0.0821 l -0.10842,-0.19258 -0.1198,-0.22288 -0.11018,-0.21571 -0.0995,-0.20534 -0.0906,-0.19746 -0.0813,-0.18739 -0.0721,-0.17628 -0.0648,-0.16814 -0.0569,-0.15774 -0.0918,-0.28112 -0.0427,-0.14698 -0.0265,-0.0792 -0.0287,-0.0655 -0.0303,-0.0517 -0.0314,-0.0379 -0.0319,-0.0241 -0.016,-0.007 -0.0159,-0.003 -0.0157,5e-5 -0.22339,0.0125 -0.22346,0.0109 -0.0156,0.002 -0.0154,0.005 -0.0152,0.008 -0.0292,0.0273 -0.0273,0.041 -0.0247,0.0546 -0.0217,0.0681 -0.018,0.0815 -0.0271,0.15063 -0.0619,0.28918 -0.0402,0.16282 -0.0468,0.17399 -0.0533,0.18286 -0.0613,0.19485 -0.0695,0.20586 -0.0775,0.21461 -0.087,0.22605 -0.0958,0.23419 -0.0877,0.2029 a 31,31 0 0 1 -0.7856,0 l -0.0877,-0.2029 -0.0958,-0.23419 -0.087,-0.22605 -0.0775,-0.21461 -0.0695,-0.20586 -0.0613,-0.19485 -0.0533,-0.18286 -0.0468,-0.17399 -0.0402,-0.16282 -0.0619,-0.28918 -0.0271,-0.15063 -0.018,-0.0815 -0.0217,-0.0681 -0.0247,-0.0546 -0.0273,-0.041 -0.0292,-0.0273 -0.0152,-0.008 -0.0155,-0.005 -0.0156,-0.002 -0.22346,-0.0109 -0.22338,-0.0125 -0.0157,-5e-5 -0.0159,0.003 -0.016,0.007 -0.0319,0.0241 -0.0314,0.0379 -0.0303,0.0517 -0.0287,0.0655 -0.0265,0.0792 -0.0427,0.14698 -0.0918,0.28112 -0.057,0.15774 -0.0647,0.16814 -0.0722,0.17628 -0.0813,0.18739 -0.0906,0.19746 -0.0995,0.20534 -0.11018,0.21571 -0.1198,0.22288 -0.10842,0.19263 a 31,31 0 0 1 -0.7813,-0.0821 l -0.066,-0.21096 -0.0708,-0.24292 -0.0629,-0.23391 -0.0546,-0.22153 -0.0476,-0.212 -0.0406,-0.20019 -0.0339,-0.18743 -0.0284,-0.17793 -0.0229,-0.16613 -0.0313,-0.29407 -0.0112,-0.15264 -0.009,-0.083 -0.0144,-0.07 -0.0189,-0.0569 -0.0228,-0.0436 -0.0262,-0.0302 -0.0142,-0.01 -0.0148,-0.007 -0.0154,-0.003 -0.22109,-0.0342 -0.22086,-0.0358 -0.0156,-0.002 -0.0162,0.002 -0.0166,0.005 -0.0342,0.0206 -0.0352,0.0344 -0.0356,0.0483 -0.0354,0.0621 -0.0346,0.076 -0.0578,0.14172 -0.12067,0.26998 -0.0731,0.15092 -0.082,0.16045 -0.0902,0.16778 -0.10044,0.17786 -0.11078,0.18691 -0.12044,0.19381 -0.13213,0.20301 -0.14244,0.20914 -0.12796,0.18024 a 31,31 0 0 1 -0.76843,-0.16334 l -0.0436,-0.2167 -0.0451,-0.249 -0.0381,-0.2392 -0.0312,-0.22604 -0.0252,-0.21581 -0.0194,-0.20333 -0.0141,-0.18995 -0.01,-0.17992 -0.005,-0.16762 -4.3e-4,-0.29572 0.005,-0.15298 -7e-4,-0.0835 -0.007,-0.0712 -0.0128,-0.0586 -0.0181,-0.0458 -0.0229,-0.0328 -0.0131,-0.0115 -0.0141,-0.008 -0.015,-0.005 -0.21631,-0.0571 -0.21591,-0.0587 -0.0154,-0.003 -0.0163,3e-5 -0.017,0.003 -0.0362,0.0169 -0.0386,0.0306 -0.0404,0.0443 -0.0417,0.0581 -0.0424,0.072 -0.0723,0.13489 -0.14823,0.25589 -0.0885,0.14245 -0.0983,0.15101 -0.10722,0.15743 -0.11849,0.16639 -0.12971,0.1743 -0.14004,0.18016 -0.15262,0.18808 -0.16352,0.19311 -0.1461,0.16588 a 31,31 0 0 1 -0.74715,-0.24277 l -0.0207,-0.22007 -0.0188,-0.25234 -0.0129,-0.24188 -0.007,-0.22806 -0.002,-0.21726 0.002,-0.20425 0.006,-0.19039 0.009,-0.17994 0.0121,-0.16726 0.0305,-0.29415 0.0208,-0.15163 0.008,-0.0831 4.4e-4,-0.0715 -0.007,-0.0596 -0.0133,-0.0474 -0.0193,-0.035 -0.0118,-0.0128 -0.0131,-0.01 -0.0144,-0.006 -0.20915,-0.0795 -0.20859,-0.0809 -0.0149,-0.005 -0.0162,-0.002 -0.0173,0.002 -0.0378,0.0131 -0.0416,0.0264 -0.0448,0.0398 -0.0475,0.0534 -0.0496,0.0671 -0.086,0.12659 -0.17417,0.239 -0.10291,0.13242 -0.11354,0.1399 -0.12308,0.14536 -0.13523,0.15309 -0.14722,0.1598 -0.1581,0.16452 -0.17145,0.17111 -0.18281,0.17496 -0.16264,0.14969 a 31,31 0 0 1 -0.71768,-0.31953 l 0.002,-0.22103 0.008,-0.25293 0.0124,-0.2419 0.0165,-0.22758 0.0202,-0.21633 0.0233,-0.20293 0.0257,-0.18874 0.028,-0.17799 0.0295,-0.16508 0.0611,-0.28935 0.0365,-0.14863 0.0167,-0.0818 0.008,-0.071 -3.9e-4,-0.06 -0.008,-0.0485 -0.0156,-0.0368 -0.0104,-0.0139 -0.0121,-0.0109 -0.0136,-0.008 -0.1997,-0.10087 -0.19899,-0.10227 -0.0143,-0.006 -0.0159,-0.003 -0.0174,-2.2e-4 -0.0389,0.009 -0.0441,0.0219 -0.0487,0.0349 -0.0528,0.0482 -0.0564,0.0616 -0.0988,0.11691 -0.19819,0.21948 -0.11619,0.12094 -0.12754,0.12727 -0.13761,0.1317 -0.15048,0.13811 -0.16312,0.14353 -0.17444,0.1471 -0.18839,0.15225 -0.2001,0.15489 -0.1774,0.13187 a 31,31 0 0 1 -0.68034,-0.3928 l 0.0255,-0.21957 0.0341,-0.25073 0.0376,-0.23928 0.0402,-0.22461 0.0427,-0.21303 0.0444,-0.19938 0.0453,-0.18503 0.0464,-0.17408 0.0466,-0.16109 0.091,-0.28139 0.0519,-0.14399 0.0251,-0.0796 0.0153,-0.0698 0.006,-0.0597 -0.003,-0.0491 -0.0117,-0.0382 -0.009,-0.0149 -0.0109,-0.0121 -0.0127,-0.009 -0.18806,-0.1212 -0.18722,-0.1225 -0.0136,-0.008 -0.0155,-0.005 -0.0173,-0.002 -0.0397,0.005 -0.0462,0.0171 -0.0521,0.0296 -0.0576,0.0424 -0.0625,0.0554 -0.11045,0.10594 -0.22005,0.19757 -0.12819,0.10812 -0.14014,0.11324 -0.15063,0.1166 -0.16409,0.12163 -0.17723,0.12569 -0.18886,0.12806 -0.20327,0.13172 -0.21519,0.13313 -0.19021,0.1126 a 31,31 0 0 1 -0.63557,-0.46182 l 0.0483,-0.2157 0.0601,-0.2458 0.0625,-0.23403 0.0634,-0.21918 0.0648,-0.2074 0.065,-0.19365 0.0643,-0.17928 0.0644,-0.16828 0.0632,-0.15533 0.11989,-0.27033 0.0666,-0.13779 0.0333,-0.0766 0.0225,-0.0679 0.0121,-0.0587 0.002,-0.0492 -0.008,-0.0392 -0.007,-0.0158 -0.01,-0.0132 -0.0117,-0.0105 -0.17436,-0.14019 -0.17338,-0.1414 -0.0127,-0.009 -0.0148,-0.007 -0.017,-0.004 -0.04,7.4e-4 -0.0477,0.0122 -0.0549,0.024 -0.0617,0.0361 -0.068,0.0485 -0.12092,0.0938 -0.2395,0.17348 -0.13879,0.0941 -0.15121,0.098 -0.16198,0.10021 -0.17592,0.10381 -0.18939,0.10648 -0.20121,0.10762 -0.21593,0.10975 -0.22793,0.1099 -0.20094,0.0921 a 31,31 0 0 1 -0.58381,-0.52567 l 0.0706,-0.20946 0.0855,-0.23817 0.0866,-0.22622 0.086,-0.21135 0.0861,-0.19949 0.0849,-0.1858 0.0827,-0.17157 0.0816,-0.16063 0.0791,-0.14787 0.1475,-0.25632 0.0807,-0.13007 0.0412,-0.0727 0.0295,-0.0651 0.0182,-0.0571 0.007,-0.0487 -0.003,-0.0398 -0.006,-0.0165 -0.008,-0.0141 -0.0106,-0.0117 -0.15876,-0.15765 -0.15765,-0.15875 -0.0117,-0.0106 -0.0141,-0.008 -0.0165,-0.006 -0.0398,-0.003 -0.0487,0.007 -0.0571,0.0182 -0.0651,0.0295 -0.0727,0.0412 -0.13006,0.0807 -0.25632,0.1475 -0.14787,0.0791 -0.16063,0.0816 -0.17157,0.0827 -0.1858,0.0849 -0.19949,0.0861 -0.21135,0.086 -0.22622,0.0866 -0.23817,0.0855 -0.20946,0.0706 a 31,31 0 0 1 -0.52567,-0.58382 l 0.0921,-0.20093 0.1099,-0.22793 0.10975,-0.21593 0.10762,-0.20121 0.10648,-0.1894 0.10381,-0.17591 0.10021,-0.16198 0.098,-0.15122 0.0941,-0.13879 0.17348,-0.23949 0.0938,-0.12092 0.0485,-0.068 0.0361,-0.0617 0.024,-0.0549 0.0122,-0.0477 7.4e-4,-0.04 -0.004,-0.0169 -0.007,-0.0148 -0.009,-0.0127 -0.14141,-0.17338 -0.14019,-0.17437 -0.0105,-0.0117 -0.0132,-0.01 -0.0158,-0.007 -0.0393,-0.008 -0.0492,0.002 -0.0587,0.0121 -0.0679,0.0225 -0.0766,0.0333 -0.13778,0.0666 -0.27033,0.1199 -0.15533,0.0632 -0.16828,0.0644 -0.17928,0.0643 -0.19365,0.065 -0.2074,0.0648 -0.21919,0.0634 -0.23402,0.0625 -0.2458,0.0601 -0.2157,0.0483 a 31,31 0 0 1 -0.46176,-0.63556 l 0.1126,-0.19021 0.13313,-0.2152 0.13172,-0.20327 0.12806,-0.18886 0.12569,-0.17722 0.12163,-0.1641 0.1166,-0.15062 0.11324,-0.14015 0.10812,-0.12819 0.19757,-0.22005 0.10594,-0.11045 0.0554,-0.0625 0.0424,-0.0576 0.0296,-0.0521 0.0171,-0.0462 0.005,-0.0397 -0.002,-0.0173 -0.005,-0.0155 -0.008,-0.0136 -0.1225,-0.18721 -0.1212,-0.18806 -0.009,-0.0127 -0.0121,-0.0109 -0.0149,-0.009 -0.0382,-0.0117 -0.0491,-0.003 -0.0597,0.006 -0.0698,0.0153 -0.0796,0.0251 -0.14399,0.0519 -0.28139,0.091 -0.16108,0.0466 -0.17409,0.0464 -0.18503,0.0452 -0.19938,0.0444 -0.21303,0.0427 -0.22461,0.0402 -0.23928,0.0376 -0.25073,0.0341 -0.21957,0.0255 a 31,31 0 0 1 -0.3928,-0.68035 l 0.13187,-0.1774 0.15489,-0.2001 0.15225,-0.18839 0.1471,-0.17443 0.14353,-0.16312 0.13811,-0.15049 0.13171,-0.13761 0.12726,-0.12754 0.12094,-0.11618 0.21948,-0.1982 0.11691,-0.0988 0.0616,-0.0564 0.0482,-0.0528 0.0349,-0.0487 0.0219,-0.0441 0.009,-0.0389 -2.2e-4,-0.0174 -0.003,-0.0159 -0.006,-0.0144 -0.10226,-0.19899 -0.10088,-0.1997 -0.008,-0.0136 -0.0109,-0.0121 -0.0139,-0.0104 -0.0368,-0.0156 -0.0485,-0.008 -0.0599,-3.9e-4 -0.0711,0.008 -0.0818,0.0167 -0.14863,0.0365 -0.28935,0.0611 -0.16508,0.0296 -0.17799,0.028 -0.18874,0.0257 -0.20293,0.0233 -0.21633,0.0202 -0.22758,0.0165 -0.2418998,0.0124 -0.25293,0.008 -0.22103,0.002 a 31,31 0 0 1 -0.31953,-0.71768 l 0.1497,-0.16264 0.17495,-0.18281 0.17111,-0.17144 0.16453,-0.15811 0.15979,-0.14722 0.1530898,-0.13522 0.14536,-0.12309 0.1399,-0.11354 0.13242,-0.10291 0.239,-0.17417 0.12659,-0.086 0.0672,-0.0496 0.0534,-0.0475 0.0398,-0.0448 0.0263,-0.0416 0.0131,-0.0378 0.002,-0.0173 -0.002,-0.0162 -0.005,-0.0149 -0.0809,-0.20859 -0.0795,-0.20915 -0.006,-0.0144 -0.01,-0.0131 -0.0128,-0.0118 -0.035,-0.0194 -0.0474,-0.0133 -0.0596,-0.007 -0.0715,4.4e-4 -0.0831,0.008 -0.15163,0.0208 -0.29415,0.0305 -0.1672598,0.0121 -0.17994,0.009 -0.19039,0.006 -0.20425,0.002 -0.21726,-0.002 -0.22806,-0.007 -0.24188,-0.0129 -0.25234,-0.0188 -0.22007,-0.0207 a 31,31 0 0 1 -0.24276,-0.74715 l 0.16587,-0.1461 0.19311,-0.16352 0.18808,-0.15262 0.18016,-0.14004 0.17431,-0.12972 0.16638,-0.11848 0.15743,-0.10722 0.15101,-0.0983 0.14245,-0.0885 0.25589,-0.14823 0.13489,-0.0723 0.072,-0.0424 0.0581,-0.0417 0.0443,-0.0404 0.0306,-0.0386 0.0169,-0.0362 0.003,-0.017 3e-5,-0.0163 -0.003,-0.0154 -0.0587,-0.2159 -0.0571,-0.21631 -0.005,-0.015 -0.008,-0.0141 -0.0115,-0.0131 -0.0328,-0.0229 -0.0458,-0.0182 -0.0586,-0.0128 -0.0711,-0.007 -0.0835,-7e-4 -0.15298,0.005 -0.29572,-4.3e-4 -0.16762,-0.005 -0.17992,-0.01 -0.18995,-0.0141 -0.20333,-0.0194 -0.21581,-0.0252 -0.22604,-0.0312 -0.2392,-0.0381 -0.249,-0.0451 -0.2167,-0.0436 a 31,31 0 0 1 -0.16333,-0.76843 l 0.18023,-0.12796 0.20914,-0.14244 0.20302,-0.13213 0.1938,-0.12044 0.18691,-0.11078 0.17786,-0.10044 0.16778,-0.0902 0.16045,-0.082 0.15092,-0.0731 0.26999,-0.12067 0.14171,-0.0578 0.076,-0.0346 0.0621,-0.0354 0.0483,-0.0356 0.0344,-0.0352 0.0206,-0.0343 0.005,-0.0166 0.002,-0.0162 -0.002,-0.0156 -0.0358,-0.22085 -0.0342,-0.2211 -0.003,-0.0154 -0.007,-0.0148 -0.01,-0.0142 -0.0302,-0.0262 -0.0436,-0.0228 -0.0569,-0.0189 -0.07,-0.0144 -0.083,-0.009 -0.15264,-0.0112 -0.29406,-0.0313 -0.16613,-0.0229 -0.17793,-0.0284 -0.18744,-0.0339 -0.20019,-0.0406 -0.21199,-0.0476 -0.22154,-0.0547 -0.23391,-0.0629 -0.24292,-0.0708 -0.21096,-0.066 a 31,31 0 0 1 -0.0821,-0.7813 l 0.19263,-0.10842 0.22289,-0.1198 0.2157,-0.11018 0.20534,-0.0995 0.19746,-0.0906 0.18739,-0.0813 0.17628,-0.0721 0.16814,-0.0648 0.15774,-0.057 0.28112,-0.0918 0.14698,-0.0427 0.0792,-0.0265 0.0655,-0.0287 0.0517,-0.0303 0.0379,-0.0314 0.0241,-0.0319 0.007,-0.016 0.003,-0.0159 -5e-5,-0.0157 -0.0125,-0.22338 -0.0109,-0.22347 -0.002,-0.0156 -0.005,-0.0155 -0.009,-0.0152 -0.0273,-0.0292 -0.041,-0.0273 -0.0546,-0.0247 -0.0681,-0.0217 -0.0815,-0.018 -0.15063,-0.0271 -0.28918,-0.0619 -0.16282,-0.0402 -0.17399,-0.0468 -0.18286,-0.0533 -0.19485,-0.0613 -0.20586,-0.0695 -0.21461,-0.0775 -0.22605,-0.087 -0.23419,-0.0958 -0.2029,-0.0877 a 31,31 0 0 1 0,-0.7856 l 0.2029,-0.0877 0.23419,-0.0958 0.22605,-0.087 0.21461,-0.0775 0.20586,-0.0695 0.19485,-0.0613 0.18286,-0.0533 0.17399,-0.0468 0.16282,-0.0402 0.28918,-0.0619 0.15063,-0.0271 0.0815,-0.0181 0.0681,-0.0217 0.0546,-0.0247 0.041,-0.0273 0.0273,-0.0292 0.009,-0.0152 0.005,-0.0155 0.002,-0.0156 0.0109,-0.22346 0.0125,-0.22338 5e-5,-0.0157 -0.003,-0.0159 -0.007,-0.016 -0.0241,-0.0319 -0.0379,-0.0314 -0.0517,-0.0303 -0.0655,-0.0287 -0.0792,-0.0265 -0.14698,-0.0427 -0.28112,-0.0918 -0.15774,-0.057 -0.16814,-0.0648 -0.17628,-0.0721 -0.18739,-0.0813 -0.19746,-0.0906 -0.20534,-0.0995 -0.2157,-0.11018 -0.22289,-0.1198 -0.19263,-0.10842 a 31,31 0 0 1 0.0821,-0.7813 l 0.21096,-0.066 0.24292,-0.0708 0.23391,-0.0629 0.22153,-0.0547 0.212,-0.0476 0.20019,-0.0406 0.18744,-0.0339 0.17793,-0.0284 0.16613,-0.0229 0.29406,-0.0313 0.15264,-0.0112 0.083,-0.009 0.07,-0.0144 0.0569,-0.0189 0.0436,-0.0228 0.0302,-0.0262 0.01,-0.0142 0.007,-0.0148 0.003,-0.0154 0.0342,-0.2211 0.0358,-0.22085 0.002,-0.0156 -0.002,-0.0162 -0.005,-0.0166 -0.0206,-0.0342 -0.0344,-0.0352 -0.0483,-0.0356 -0.0621,-0.0354 -0.076,-0.0346 -0.14171,-0.0578 -0.26999,-0.12067 -0.15092,-0.0731 -0.16045,-0.082 -0.16778,-0.0902 -0.17786,-0.10044 -0.18691,-0.11078 -0.1938,-0.12045 -0.20302,-0.13212 -0.20914,-0.14244 -0.18024,-0.12796 a 31,31 0 0 1 0.16334,-0.76844 l 0.2167,-0.0436 0.249,-0.0451 0.2392,-0.0381 0.22604,-0.0312 0.21581,-0.0252 0.20333,-0.0194 0.18995,-0.0141 0.17992,-0.01 0.16762,-0.005 0.29572,-4.2e-4 0.15298,0.005 0.0835,-7e-4 0.0711,-0.007 0.0586,-0.0128 0.0458,-0.0181 0.0328,-0.0229 0.0115,-0.0131 0.008,-0.0141 0.005,-0.015 0.0571,-0.21631 0.0587,-0.2159 0.003,-0.0154 -3e-5,-0.0163 -0.003,-0.017 -0.0169,-0.0362 -0.0306,-0.0386 -0.0443,-0.0404 -0.0581,-0.0417 -0.072,-0.0424 -0.13489,-0.0723 -0.25589,-0.14824 -0.14245,-0.0885 -0.15101,-0.0983 -0.15743,-0.10722 -0.16639,-0.11848 -0.1743,-0.12971 -0.18016,-0.14004 -0.18808,-0.15262 -0.19311,-0.16352 -0.16588,-0.14611 a 31,31 0 0 1 0.24277,-0.74714 l 0.22007,-0.0207 0.25234,-0.0188 0.24188,-0.0129 0.22806,-0.007 0.21726,-0.002 0.20425,0.002 0.19039,0.006 0.17994,0.009 0.1672598,0.0121 0.29415,0.0305 0.15163,0.0208 0.0831,0.008 0.0715,4.4e-4 0.0596,-0.007 0.0474,-0.0133 0.035,-0.0194 0.0128,-0.0118 0.01,-0.0131 0.006,-0.0144 0.0795,-0.20915 0.0809,-0.20859 0.005,-0.0149 0.002,-0.0162 -0.002,-0.0173 -0.0131,-0.0378 -0.0263,-0.0416 -0.0398,-0.0448 -0.0534,-0.0475 -0.0672,-0.0496 -0.12659,-0.086 -0.239,-0.17417 -0.13242,-0.10291 -0.1399,-0.11354 -0.14536,-0.12309 -0.1530898,-0.13522 -0.1598,-0.14722 -0.16452,-0.15811 -0.17111,-0.17144 -0.17496,-0.18281 -0.14969,-0.16265 a 31,31 0 0 1 0.31953,-0.71768 l 0.22103,0.002 0.25293,0.008 0.2418998,0.0124 0.22758,0.0165 0.21633,0.0202 0.20293,0.0233 0.18874,0.0257 0.17799,0.028 0.16508,0.0296 0.28935,0.0611 0.14863,0.0365 0.0818,0.0167 0.0711,0.008 0.0599,-3.8e-4 0.0485,-0.008 0.0368,-0.0156 0.0139,-0.0104 0.0109,-0.0121 0.008,-0.0136 0.10088,-0.1997 0.10226,-0.19899 0.006,-0.0144 0.003,-0.0159 2.2e-4,-0.0174 -0.009,-0.0389 -0.0219,-0.0441 -0.0349,-0.0487 -0.0482,-0.0528 -0.0616,-0.0564 -0.11691,-0.0988 -0.21948,-0.1982 -0.12094,-0.11618 -0.12726,-0.12754 -0.13171,-0.13761 -0.13811,-0.15049 -0.14353,-0.16312 -0.1471,-0.17443 -0.15225,-0.18839 -0.15489,-0.2001 -0.13187,-0.1774 a 31,31 0 0 1 0.3928,-0.68035 l 0.21957,0.0255 0.25073,0.0341 0.23928,0.0376 0.22461,0.0402 0.21303,0.0427 0.19938,0.0444 0.18503,0.0452 0.17409,0.0465 0.16108,0.0466 0.28139,0.091 0.14399,0.0519 0.0796,0.0251 0.0698,0.0153 0.0597,0.006 0.0491,-0.003 0.0382,-0.0117 0.0149,-0.009 0.0121,-0.0109 0.009,-0.0127 0.1212,-0.18806 0.1225,-0.18721 0.008,-0.0136 0.005,-0.0155 0.002,-0.0173 -0.005,-0.0397 -0.0171,-0.0461 -0.0296,-0.0521 -0.0424,-0.0576 -0.0554,-0.0625 -0.10594,-0.11045 -0.19757,-0.22005 -0.10812,-0.12819 -0.11324,-0.14015 -0.1166,-0.15062 -0.12163,-0.1641 -0.12569,-0.17723 -0.12806,-0.18885 -0.13172,-0.20328 -0.13313,-0.21519 -0.1126,-0.19021 a 31,31 0 0 1 0.46176,-0.63556 l 0.2157,0.0483 0.2458,0.0601 0.23402,0.0625 0.21919,0.0634 0.2074,0.0648 0.19365,0.065 0.17928,0.0643 0.16828,0.0644 0.15533,0.0632 0.27033,0.11989 0.13778,0.0666 0.0766,0.0333 0.0679,0.0225 0.0587,0.0121 0.0492,0.002 0.0393,-0.008 0.0158,-0.007 0.0132,-0.01 0.0105,-0.0117 0.14019,-0.17436 0.14141,-0.17338 0.009,-0.0127 0.007,-0.0148 0.004,-0.017 -7.4e-4,-0.04 -0.0122,-0.0477 -0.024,-0.0549 -0.0361,-0.0617 -0.0485,-0.068 -0.0938,-0.12092 -0.17348,-0.2395 -0.0941,-0.13879 -0.098,-0.15121 -0.10021,-0.16198 -0.10381,-0.17592 -0.10648,-0.18939 -0.10762,-0.20121 -0.10975,-0.21593 -0.1099,-0.22793 -0.0921,-0.20094 a 31,31 0 0 1 0.52567,-0.58381 l 0.20946,0.0706 0.23817,0.0855 0.22622,0.0866 0.21135,0.086 0.19949,0.0861 0.1858,0.0849 0.17157,0.0827 0.16063,0.0816 0.14787,0.0791 0.25632,0.1475 0.13006,0.0807 0.0727,0.0412 0.0651,0.0295 0.0571,0.0182 0.0487,0.007 0.0398,-0.003 0.0165,-0.006 0.0141,-0.008 0.0117,-0.0106 0.15765,-0.15876 0.15875,-0.15765 0.0106,-0.0117 0.008,-0.0141 0.006,-0.0165 0.003,-0.0398 -0.007,-0.0487 -0.0182,-0.0571 -0.0295,-0.0651 -0.0412,-0.0727 -0.0807,-0.13006 -0.14749,-0.25632 -0.0791,-0.14787 -0.0816,-0.16063 -0.0827,-0.17157 -0.0849,-0.1858 -0.0861,-0.19949 -0.086,-0.21135 -0.0866,-0.22622 -0.0855,-0.23817 -0.0706,-0.20946 a 31,31 0 0 1 0.58381,-0.52567 l 0.20094,0.0921 0.22793,0.1099 0.21593,0.10975 0.20121,0.10762 0.18939,0.10648 0.17591,0.10381 0.16199,0.10021 0.15121,0.098 0.13879,0.0941 0.2395,0.17348 0.12092,0.0938 0.068,0.0485 0.0617,0.0361 0.0549,0.024 0.0477,0.0122 0.04,7.4e-4 0.017,-0.004 0.0148,-0.007 0.0127,-0.009 0.17338,-0.1414 0.17436,-0.1402 0.0117,-0.0105 0.01,-0.0132 0.007,-0.0158 0.008,-0.0393 -0.002,-0.0492 -0.0121,-0.0587 -0.0225,-0.0679 -0.0333,-0.0766 -0.0666,-0.13778 -0.11989,-0.27033 -0.0632,-0.15533 -0.0644,-0.16828 -0.0643,-0.17928 -0.065,-0.19365 -0.0648,-0.2074 -0.0634,-0.21919 -0.0625,-0.23402 -0.0601,-0.2458 -0.0483,-0.2157 a 31,31 0 0 1 0.63556,-0.46176 l 0.19021,0.1126 0.21519,0.13313 0.20328,0.13172 0.18885,0.12806 0.17723,0.12569 0.1641,0.12163 0.15062,0.1166 0.14015,0.11324 0.12819,0.10812 0.22005,0.19757 0.11045,0.10594 0.0625,0.0554 0.0576,0.0424 0.0521,0.0296 0.0462,0.0171 0.0397,0.005 0.0173,-0.002 0.0155,-0.005 0.0136,-0.008 0.18721,-0.1225 0.18806,-0.1212 0.0127,-0.009 0.0109,-0.0121 0.009,-0.0149 0.0116,-0.0382 0.003,-0.0491 -0.006,-0.0597 -0.0153,-0.0698 -0.0251,-0.0796 -0.0519,-0.14399 -0.091,-0.28139 -0.0466,-0.16108 -0.0464,-0.17409 -0.0453,-0.18503 -0.0444,-0.19938 -0.0427,-0.21303 -0.0402,-0.22461 -0.0376,-0.23928 -0.0341,-0.25073 -0.0255,-0.21957 a 31,31 0 0 1 0.68035,-0.3928 l 0.1774,0.13187 0.20009,0.15489 0.1884,0.15225 0.17443,0.1471 0.16312,0.14353 0.15049,0.13811 0.13761,0.13171 0.12754,0.12726 0.11618,0.12094 0.1982,0.21948 0.0988,0.11691 0.0564,0.0616 0.0528,0.0482 0.0487,0.0349 0.0441,0.0219 0.0389,0.009 0.0174,-2.2e-4 0.0159,-0.003 0.0143,-0.006 0.19899,-0.10226 0.1997,-0.10088 0.0136,-0.008 0.0121,-0.0109 0.0104,-0.0139 0.0156,-0.0368 0.008,-0.0485 3.8e-4,-0.0599 -0.008,-0.0711 -0.0167,-0.0818 -0.0365,-0.14863 -0.0611,-0.28935 -0.0296,-0.16508 -0.028,-0.17799 -0.0257,-0.18874 -0.0233,-0.20293 -0.0202,-0.21633 -0.0165,-0.22758 -0.0124,-0.2419 -0.008,-0.25293 -0.002,-0.22103 a 31,31 0 0 1 0.71768,-0.31953 l 0.16264,0.1497 0.18282,0.17495 0.17144,0.17111 0.1581,0.16453 0.14723,0.15979 0.13522,0.15309 0.12309,0.14536 0.11354,0.1399 0.10291,0.13242 0.17416,0.239 0.086,0.12659 0.0496,0.0671 0.0475,0.0534 0.0448,0.0398 0.0416,0.0263 0.0378,0.0131 0.0173,0.002 0.0162,-0.002 0.0149,-0.005 0.20859,-0.0809 0.20915,-0.0795 0.0144,-0.006 0.0131,-0.01 0.0118,-0.0128 0.0194,-0.035 0.0133,-0.0474 0.007,-0.0596 -4.4e-4,-0.0715 -0.008,-0.0831 -0.0208,-0.15163 -0.0305,-0.29415 -0.0121,-0.16726 -0.009,-0.17994 -0.006,-0.19039 -0.002,-0.20425 0.002,-0.21726 0.007,-0.22806 0.0129,-0.24188 0.0188,-0.25234 0.0207,-0.22007 a 31,31 0 0 1 0.74715,-0.24276 l 0.14611,0.16587 0.16352,0.19311 0.15262,0.18808 0.14004,0.18016 0.12971,0.17431 0.11848,0.16638 0.10722,0.15743 0.0983,0.15101 0.0885,0.14245 0.14823,0.25589 0.0723,0.13489 0.0424,0.072 0.0417,0.0581 0.0404,0.0443 0.0386,0.0306 0.0362,0.0169 0.017,0.003 0.0163,3e-5 0.0154,-0.003 0.2159,-0.0587 0.21631,-0.0572 0.015,-0.005 0.0141,-0.008 0.0131,-0.0115 0.0229,-0.0328 0.0181,-0.0458 0.0128,-0.0586 0.007,-0.0711 7e-4,-0.0835 -0.005,-0.15298 4.2e-4,-0.29572 0.005,-0.16762 0.01,-0.17992 0.0141,-0.18995 0.0194,-0.20333 0.0252,-0.21581 0.0312,-0.22604 0.0381,-0.2392 0.0451,-0.249 0.0436,-0.2167 a 31,31 0 0 1 0.76843,-0.16333 l 0.12797,0.18023 0.14244,0.20914 0.13212,0.20302 0.12044,0.1938 0.11079,0.18691 0.10044,0.17786 0.0902,0.16778 0.082,0.16045 0.0731,0.15092 0.12067,0.26999 0.0578,0.14171 0.0346,0.076 0.0354,0.0621 0.0356,0.0483 0.0352,0.0344 0.0342,0.0206 0.0166,0.005 0.0162,0.002 0.0156,-0.002 0.22085,-0.0358 0.2211,-0.0342 0.0154,-0.003 0.0148,-0.007 0.0142,-0.01 0.0262,-0.0302 0.0228,-0.0436 0.0189,-0.0569 0.0144,-0.07 0.009,-0.083 0.0112,-0.15264 0.0313,-0.29406 0.0229,-0.16613 0.0284,-0.17793 0.0339,-0.18744 0.0406,-0.20019 0.0476,-0.21199 0.0547,-0.22154 0.0629,-0.23391 0.0708,-0.24292 0.066,-0.21096 a 31,31 0 0 1 0.78129,-0.0821 l 0.10843,0.19263 0.1198,0.22289 0.11018,0.2157 0.0995,0.20534 0.0906,0.19746 0.0813,0.18739 0.0721,0.17628 0.0648,0.16814 0.057,0.15774 0.0918,0.28112 0.0427,0.14698 0.0265,0.0792 0.0287,0.0655 0.0303,0.0517 0.0314,0.0379 0.0319,0.0241 0.016,0.007 0.0159,0.003 0.0157,-5e-5 0.22338,-0.0125 0.22347,-0.0109 0.0156,-0.002 0.0154,-0.005 0.0152,-0.008 0.0292,-0.0273 0.0273,-0.041 0.0247,-0.0546 0.0217,-0.0681 0.0181,-0.0815 0.0271,-0.15063 0.0619,-0.28918 0.0402,-0.16282 0.0468,-0.17399 0.0533,-0.18286 0.0613,-0.19485 0.0695,-0.20586 0.0775,-0.21461 0.087,-0.22605 0.0958,-0.23419 0.0877,-0.2029 a 31,31 0 0 1 0.7856,0 l 0.0877,0.2029 0.0958,0.23419 0.087,0.22605 0.0775,0.21461 0.0695,0.20586 0.0613,0.19485 0.0533,0.18286 0.0468,0.17399 0.0401,0.16282 0.0619,0.28918 0.0271,0.15063 0.018,0.0815 0.0217,0.0681 0.0247,0.0546 0.0273,0.041 0.0292,0.0273 0.0152,0.008 0.0154,0.005 0.0156,0.002 0.22346,0.0109 0.22338,0.0125 0.0157,5e-5 0.0159,-0.003 0.016,-0.007 0.0319,-0.0241 0.0314,-0.0379 0.0303,-0.0517 0.0287,-0.0655 0.0265,-0.0792 0.0427,-0.14698 0.0918,-0.28112 0.057,-0.15774 0.0648,-0.16814 0.0721,-0.17628 0.0813,-0.18739 0.0906,-0.19746 0.0995,-0.20534 0.11018,-0.2157 0.1198,-0.22289 0.10842,-0.19263 a 31,31 0 0 1 0.7813,0.0821 l 0.066,0.21096 0.0708,0.24292 0.0629,0.23391 0.0546,0.22154 0.0476,0.21199 0.0406,0.20019 0.0339,0.18744 0.0284,0.17793 0.0229,0.16613 0.0313,0.29406 0.0112,0.15264 0.009,0.083 0.0144,0.07 0.0189,0.0569 0.0228,0.0436 0.0262,0.0302 0.0142,0.01 0.0148,0.007 0.0154,0.003 0.22109,0.0342 0.22086,0.0358 0.0156,0.002 0.0162,-0.002 0.0166,-0.005 0.0342,-0.0206 0.0352,-0.0344 0.0356,-0.0483 0.0354,-0.0621 0.0346,-0.076 0.0578,-0.14171 0.12067,-0.26999 0.0731,-0.15092 0.082,-0.16045 0.0902,-0.16778 0.10044,-0.17786 0.11078,-0.18691 0.12044,-0.1938 0.13213,-0.20302 0.14244,-0.20914 0.12796,-0.18023 a 31,31 0 0 1 0.76843,0.16333 l 0.0436,0.2167 0.0451,0.249 0.0381,0.2392 0.0312,0.22604 0.0252,0.21581 0.0194,0.20333 0.0141,0.18995 0.01,0.17992 0.005,0.16762 4.3e-4,0.29572 -0.005,0.15298 7e-4,0.0835 0.007,0.0711 0.0128,0.0586 0.0181,0.0458 0.0229,0.0328 0.0131,0.0115 0.0141,0.008 0.015,0.005 0.21631,0.0572 0.21591,0.0587 0.0154,0.003 0.0162,-3e-5 0.017,-0.003 0.0362,-0.0169 0.0386,-0.0306 0.0404,-0.0443 0.0417,-0.0581 0.0424,-0.072 0.0723,-0.13489 0.14823,-0.25589 0.0885,-0.14245 0.0983,-0.15101 0.10722,-0.15743 0.11848,-0.16638 0.12972,-0.17431 0.14004,-0.18016 0.15262,-0.18808 0.16352,-0.19311 0.1461,-0.16587 a 31,31 0 0 1 0.74715,0.24276 l 0.0207,0.22007 0.0188,0.25234 0.0129,0.24188 0.007,0.22806 0.002,0.21726 -0.002,0.20425 -0.006,0.19039 -0.009,0.17994 -0.0121,0.16726 -0.0305,0.29415 -0.0208,0.15163 -0.008,0.0831 -4.4e-4,0.0715 0.007,0.0596 0.0133,0.0474 0.0193,0.035 0.0118,0.0128 0.0131,0.01 0.0144,0.006 0.20915,0.0795 0.20859,0.0809 0.0149,0.005 0.0162,0.002 0.0173,-0.002 0.0378,-0.0131 0.0416,-0.0263 0.0448,-0.0398 0.0475,-0.0534 0.0496,-0.0671 0.086,-0.12659 0.17417,-0.239 0.10291,-0.13242 0.11353,-0.1399 0.12309,-0.14536 0.13523,-0.15309 0.14722,-0.15979 0.1581,-0.16453 0.17145,-0.17111 0.18281,-0.17495 0.16264,-0.1497 a 31,31 0 0 1 0.71768,0.31953 l -0.002,0.22103 -0.008,0.25293 -0.0124,0.2419 -0.0165,0.22758 -0.0202,0.21633 -0.0233,0.20293 -0.0257,0.18874 -0.028,0.17799 -0.0296,0.16508 -0.0611,0.28935 -0.0365,0.14863 -0.0167,0.0818 -0.008,0.0711 3.9e-4,0.0599 0.008,0.0485 0.0156,0.0368 0.0104,0.0139 0.0121,0.0109 0.0136,0.008 0.1997,0.10088 0.19899,0.10226 0.0143,0.006 0.0159,0.003 0.0174,2.2e-4 0.0389,-0.009 0.0441,-0.0219 0.0487,-0.0349 0.0528,-0.0482 0.0564,-0.0616 0.0988,-0.11691 0.19819,-0.21948 0.11619,-0.12094 0.12754,-0.12726 0.13761,-0.13171 0.15048,-0.13811 0.16312,-0.14353 0.17444,-0.1471 0.18839,-0.15225 0.2001,-0.15489 0.1774,-0.13187 a 31,31 0 0 1 0.68034,0.3928 l -0.0255,0.21957 -0.0341,0.25073 -0.0376,0.23928 -0.0402,0.22461 -0.0427,0.21303 -0.0444,0.19938 -0.0452,0.18503 -0.0465,0.17409 -0.0466,0.16108 -0.091,0.28139 -0.0519,0.14399 -0.0251,0.0796 -0.0153,0.0698 -0.006,0.0597 0.003,0.0491 0.0117,0.0382 0.009,0.0149 0.0109,0.0121 0.0127,0.009 0.18806,0.1212 0.18721,0.1225 0.0136,0.008 0.0155,0.005 0.0173,0.002 0.0397,-0.005 0.0462,-0.0171 0.0521,-0.0296 0.0576,-0.0424 0.0625,-0.0554 0.11046,-0.10594 0.22005,-0.19757 0.12819,-0.10812 0.14014,-0.11324 0.15063,-0.1166 0.16409,-0.12163 0.17723,-0.12569 0.18886,-0.12806 0.20327,-0.13172 0.21519,-0.13313 0.19021,-0.1126 a 31,31 0 0 1 0.63557,0.46176 l -0.0483,0.2157 -0.0601,0.2458 -0.0625,0.23402 -0.0634,0.21919 -0.0648,0.2074 -0.065,0.19365 -0.0643,0.17928 -0.0644,0.16828 -0.0632,0.15533 -0.1199,0.27033 -0.0666,0.13778 -0.0333,0.0766 -0.0225,0.0679 -0.0121,0.0587 -0.002,0.0492 0.008,0.0393 0.007,0.0158 0.01,0.0132 0.0117,0.0105 0.17436,0.1402 0.17338,0.1414 0.0127,0.009 0.0148,0.007 0.017,0.004 0.04,-7.4e-4 0.0477,-0.0122 0.0549,-0.024 0.0617,-0.0361 0.068,-0.0485 0.12092,-0.0938 0.2395,-0.17348 0.13879,-0.0941 0.15122,-0.098 0.16198,-0.10021 0.17591,-0.10381 0.1894,-0.10648 0.20121,-0.10762 0.21592,-0.10975 0.22793,-0.1099 0.20094,-0.0921 a 31,31 0 0 1 0.58382,0.52567 l -0.0706,0.20946 -0.0855,0.23817 -0.0866,0.22622 -0.086,0.21135 -0.0861,0.19949 -0.0849,0.1858 -0.0827,0.17157 -0.0816,0.16063 -0.0791,0.14787 -0.1475,0.25632 -0.0807,0.13006 -0.0411,0.0727 -0.0295,0.0651 -0.0182,0.0571 -0.007,0.0487 0.003,0.0398 0.006,0.0165 0.008,0.0141 0.0106,0.0117 0.15875,0.15765 0.15765,0.15876 0.0117,0.0106 0.0141,0.008 0.0165,0.006 0.0398,0.003 0.0487,-0.007 0.0571,-0.0182 0.0651,-0.0295 0.0727,-0.0412 0.13007,-0.0807 0.25632,-0.1475 0.14787,-0.0791 0.16062,-0.0816 0.17158,-0.0827 0.18579,-0.0849 0.19949,-0.0861 0.21136,-0.086 0.22622,-0.0866 0.23816,-0.0855 0.20947,-0.0706 a 31,31 0 0 1 0.52567,0.58381 l -0.0921,0.20094 -0.1099,0.22793 -0.10975,0.21593 -0.10762,0.20121 -0.10648,0.18939 -0.10381,0.17592 -0.10021,0.16198 -0.098,0.15121 -0.0941,0.13879 -0.17348,0.2395 -0.0938,0.12092 -0.0485,0.068 -0.0361,0.0617 -0.024,0.0549 -0.0122,0.0477 -7.4e-4,0.04 0.004,0.017 0.007,0.0148 0.009,0.0127 0.1414,0.17338 0.14019,0.17436 0.0105,0.0117 0.0132,0.01 0.0158,0.007 0.0393,0.008 0.0492,-0.002 0.0587,-0.0121 0.0679,-0.0225 0.0766,-0.0333 0.13779,-0.0666 0.27033,-0.11989 0.15533,-0.0632 0.16828,-0.0644 0.17928,-0.0643 0.19365,-0.065 0.2074,-0.0648 0.21918,-0.0634 0.23403,-0.0625 0.2458,-0.0601 0.21569,-0.0483 a 31,31 0 0 1 0.46177,0.63556 l -0.11261,0.19021 -0.13312,0.21519 -0.13172,0.20328 -0.12807,0.18885 -0.12569,0.17723 -0.12163,0.1641 -0.11659,0.15062 -0.11324,0.14015 -0.10813,0.12819 -0.19756,0.22005 -0.10595,0.11045 -0.0554,0.0625 -0.0424,0.0576 -0.0296,0.0521 -0.0171,0.0461 -0.005,0.0397 0.002,0.0173 0.005,0.0155 0.008,0.0136 0.12251,0.18721 0.1212,0.18806 0.009,0.0127 0.0121,0.0109 0.0149,0.009 0.0382,0.0117 0.0491,0.003 0.0597,-0.006 0.0698,-0.0153 0.0796,-0.0251 0.14399,-0.0519 0.28138,-0.091 0.16109,-0.0466 0.17409,-0.0465 0.18502,-0.0452 0.19938,-0.0444 0.21303,-0.0427 0.22462,-0.0402 0.23927,-0.0376 0.25074,-0.0341 0.21957,-0.0255 a 31,31 0 0 1 0.3928,0.68035 l -0.13188,0.1774 -0.15489,0.2001 -0.15224,0.18839 -0.1471,0.17443 -0.14353,0.16312 -0.13812,0.15049 -0.1317,0.13761 -0.12727,0.12754 -0.12093,0.11618 -0.21949,0.1982 -0.11691,0.0988 -0.0616,0.0564 -0.0482,0.0528 -0.0349,0.0487 -0.0219,0.0441 -0.009,0.0389 2.2e-4,0.0174 0.003,0.0159 0.006,0.0144 0.10227,0.19899 0.10088,0.1997 0.008,0.0136 0.0109,0.0121 0.0139,0.0104 0.0368,0.0156 0.0485,0.008 0.06,3.8e-4 0.0711,-0.008 0.0818,-0.0167 0.14862,-0.0365 0.28936,-0.0611 0.16508,-0.0296 0.17798,-0.028 0.18875,-0.0257 0.20292,-0.0233 0.21633,-0.0202 0.22759,-0.0165 0.2419,-0.0124 0.25292,-0.008 0.22103,-0.002 a 31,31 0 0 1 0.31953,0.71768 l -0.14969,0.16265 -0.17496,0.18281 -0.1711,0.17144 -0.16453,0.15811 -0.15979,0.14722 -0.15309,0.13522 -0.14537,0.12309 -0.1399,0.11354 -0.13241,0.10291 -0.239,0.17417 -0.1266,0.086 -0.0672,0.0496 -0.0534,0.0475 -0.0398,0.0448 -0.0263,0.0416 -0.0131,0.0378 -0.002,0.0173 0.002,0.0162 0.005,0.0149 0.0809,0.20859 0.0795,0.20915 0.006,0.0144 0.01,0.0131 0.0128,0.0118 0.035,0.0194 0.0474,0.0133 0.0596,0.007 0.0715,-4.4e-4 0.0831,-0.008 0.15163,-0.0208 0.29415,-0.0305 0.16727,-0.0121 0.17994,-0.009 0.19039,-0.006 0.20425,-0.002 0.21726,0.002 0.22806,0.007 0.24187,0.0129 0.25235,0.0188 0.22007,0.0207 a 31,31 0 0 1 0.24276,0.74714 l -0.16587,0.14611 -0.19311,0.16352 -0.18809,0.15262 -0.18015,0.14004 -0.17431,0.12971 -0.16638,0.11848 -0.15744,0.10722 -0.151,0.0983 -0.14245,0.0885 -0.25589,0.14824 -0.1349,0.0723 -0.072,0.0424 -0.0581,0.0417 -0.0443,0.0404 -0.0306,0.0386 -0.0169,0.0362 -0.003,0.017 -2e-5,0.0163 0.003,0.0154 0.0587,0.2159 0.0572,0.21631 0.005,0.015 0.008,0.0141 0.0115,0.0131 0.0328,0.0229 0.0458,0.0181 0.0586,0.0128 0.0711,0.007 0.0835,7e-4 0.15297,-0.005 0.29573,4.2e-4 0.16761,0.005 0.17992,0.01 0.18996,0.0141 0.20333,0.0194 0.21581,0.0252 0.22604,0.0312 0.2392,0.0381 0.24899,0.0451 0.21671,0.0436 a 31,31 0 0 1 0.16333,0.76844 l -0.18024,0.12796 -0.20914,0.14244 -0.20301,0.13212 -0.1938,0.12045 -0.18692,0.11078 -0.17785,0.10044 -0.16778,0.0902 -0.16045,0.082 -0.15092,0.0731 -0.26999,0.12067 -0.14171,0.0578 -0.076,0.0346 -0.0621,0.0354 -0.0483,0.0356 -0.0344,0.0352 -0.0206,0.0342 -0.005,0.0166 -0.002,0.0162 0.002,0.0156 0.0358,0.22085 0.0342,0.2211 0.003,0.0154 0.007,0.0148 0.01,0.0142 0.0302,0.0262 0.0436,0.0228 0.0569,0.0189 0.07,0.0144 0.083,0.009 0.15264,0.0112 0.29406,0.0313 0.16613,0.0229 0.17793,0.0284 0.18743,0.0339 0.20019,0.0406 0.212,0.0476 0.22154,0.0547 0.2339,0.0629 0.24292,0.0708 0.21096,0.066 a 31,31 0 0 1 0.0821,0.7813 z"
       id="SvgjsPath1950" />
    <path
       style="fill:none;stroke:#ff0000;stroke-width:0.02534874;stroke-linecap:butt;stroke-linejoin:miter;stroke-miterlimit:4;stroke-dasharray:none;stroke-opacity:1"
       d="m 77.581696,-269.16612 c -0.303981,0.004 -0.960379,0.0714 -1.249524,0.16446 v 5.7062 0 c 1.250011,0.40363 2.971259,-0.0402 3.744691,-1.09396 0.773438,-1.05376 0.774286,-2.48136 0.0021,-3.53602 -0.579556,-0.79148 -1.51116,-1.25423 -2.497714,-1.24068 z"
       id="path4631"
       inkscape:connector-curvature="0"
       sodipodi:nodetypes="cccccccc" />
    <ellipse
       style="opacity:1;fill:none;stroke:#ff0000;stroke-width:0.02462092;stroke-miterlimit:4;stroke-dasharray:none;stroke-opacity:1"
       id="path840"
       cx="37.555382"
       cy="-266.15558"
       rx="26.487688"
       ry="26.48769" />
    <path
       style="fill:none;stroke:#ff0000;stroke-width:0.01;stroke-linecap:butt;stroke-linejoin:miter;stroke-opacity:1;fill-opacity:1;stroke-miterlimit:4;stroke-dasharray:none"
       d="m 76.332172,-269.00166 v 5.7062"
       id="path832"
       inkscape:connector-curvature="0" />
  </g>
</svg>
